<svg xmlns="http://www.w3.org/2000/svg" version="1.1" xmlns:xlink="http://www.w3.org/1999/xlink" xmlns:svgjs="http://svgjs.dev/svgjs" width="1440" height="560" preserveAspectRatio="none" viewBox="0 0 1440 560"><g mask="url(&quot;#SvgjsMask2077&quot;)" fill="none"><rect width="1440" height="560" x="0" y="0" fill="rgba(187, 233, 255, 1)"></rect><circle r="7.3" cx="490.63" cy="387.78000000000003" filter="url(#SvgjsFilter2078)" fill="rgba(255, 255, 255, 1)"></circle><circle r="5.75" cx="98.05" cy="55.77" filter="url(#SvgjsFilter2078)" fill="rgba(255, 255, 255, 1)"></circle><circle r="9.08" cx="1072.75" cy="544.1700000000001" filter="url(#SvgjsFilter2078)" fill="rgba(51, 121, 194, 0.58)"></circle><circle r="7.235" cx="781.595" cy="63.165" filter="url(#SvgjsFilter2078)" fill="rgba(255, 255, 255, 1)"></circle><circle r="9.14" cx="966.36" cy="535.34" filter="url(#SvgjsFilter2078)" fill="rgba(255, 255, 255, 1)"></circle><circle r="5.835" cx="1239.665" cy="513.755" filter="url(#SvgjsFilter2078)" fill="rgba(255, 255, 255, 1)"></circle><circle r="6.94" cx="59.169999999999995" cy="113.7" filter="url(#SvgjsFilter2078)" fill="rgba(51, 121, 194, 0.58)"></circle><circle r="5.5" cx="293.76" cy="398.24" filter="url(#SvgjsFilter2078)" fill="rgba(255, 255, 255, 1)"></circle><circle r="9.06" cx="1214.6499999999999" cy="371.62" filter="url(#SvgjsFilter2078)" fill="rgba(51, 121, 194, 0.58)"></circle><circle r="8.525" cx="405.29499999999996" cy="488.215" filter="url(#SvgjsFilter2078)" fill="rgba(51, 121, 194, 0.58)"></circle><circle r="8.195" cx="21.634999999999998" cy="515.395" filter="url(#SvgjsFilter2078)" fill="rgba(255, 255, 255, 1)"></circle><circle r="8.995" cx="1053.8649999999998" cy="129.005" filter="url(#SvgjsFilter2078)" fill="rgba(51, 121, 194, 0.58)"></circle><circle r="7.975" cx="753.7950000000001" cy="331.855" filter="url(#SvgjsFilter2078)" fill="rgba(255, 255, 255, 1)"></circle><circle r="8.91" cx="175.84" cy="247.95" filter="url(#SvgjsFilter2078)" fill="rgba(51, 121, 194, 0.58)"></circle><circle r="5.48" cx="1194.92" cy="527.47" filter="url(#SvgjsFilter2078)" fill="rgba(51, 121, 194, 0.58)"></circle><circle r="8.47" cx="1242.58" cy="497.51000000000005" filter="url(#SvgjsFilter2078)" fill="rgba(255, 255, 255, 1)"></circle><circle r="6.41" cx="163.94" cy="423.31" filter="url(#SvgjsFilter2078)" fill="rgba(255, 255, 255, 1)"></circle><circle r="4.9" cx="1340.3000000000002" cy="438.58" filter="url(#SvgjsFilter2078)" fill="rgba(255, 255, 255, 1)"></circle><circle r="9.05" cx="974.77" cy="397.09000000000003" filter="url(#SvgjsFilter2078)" fill="rgba(255, 255, 255, 1)"></circle><circle r="9.29" cx="449.49" cy="450.07" filter="url(#SvgjsFilter2078)" fill="rgba(255, 255, 255, 1)"></circle><path d="M1275.7 524.8L1279.6 473.9 1294.1 462.1 1292.7 479.2C1292 481.1 1293.6 482.3 1295.4 483 1296.9 482.8 1298.7 481.4 1298.5 480L1300.9 456.3 1314.7 444.3 1317.7 462.4 1304 481.9C1304 481.9 1303.7 482.5 1303.7 482.5 1303.3 483.7 1304.1 485.4 1305.1 486.4 1306.9 487 1308.3 486.9 1309.6 485.3L1319.4 471.1 1322.4 489.2 1293.8 531.3C1293.8 531.3 1293 531.7 1293 531.7 1292.5 532.9 1293.3 534.5 1294.3 535.6 1295.9 536.8 1298.1 536.2 1298.8 534.4L1324.1 497.9 1328.4 519.9 1317.2 536.3C1317.2 536.3 1317.2 536.3 1317 536.9 1316.5 538.1 1316.7 539.5 1317.7 540.5 1319.5 541.2 1321.5 541.2 1322.8 539.6L1330.1 528.6 1333.2 544.7C1333.1 546.7 1334.9 547.4 1336.4 547.2 1338.4 547.2 1339.6 545.6 1339.1 543.4L1336.6 527.6 1346.7 535.3C1348.5 535.9 1350.6 536 1351.2 534.1 1352.5 532.6 1352.3 531.1 1350.7 529.9L1334.3 518.6 1330.6 496.9 1367.7 522.4C1368.7 523.4 1370.9 522.8 1372.1 521.2 1372.6 520 1372.6 518 1371 516.8L1328.9 488.1 1325.9 470 1340 479.9C1341.6 481.1 1343.3 480.3 1344.5 478.7 1345.5 477.7 1345 475.5 1344 474.5L1324.2 461.3 1320.6 443 1338.1 449.2 1348.1 470.5C1348.9 472.2 1350.7 472.8 1352.3 472 1353.8 471.9 1354.6 469.4 1353.9 467.8L1346.5 452.3 1364 458.5 1385.4 504.9C1386.2 506.6 1388 507.2 1389.7 506.4 1391.3 505.7 1391.9 503.8 1391.2 502.2L1372.4 461.5 1392.9 468.8 1401.4 486.8C1402.2 488.5 1404 489.1 1405.6 488.3 1407.3 487.6 1407.9 485.8 1407.1 484.1L1401.9 472.1 1417 477.5C1418.8 478.1 1420.5 477.3 1421.1 475.5 1421.7 473.7 1421 472.1 1419.2 471.4L1404.1 466 1415.5 460.6C1417.2 459.8 1417.8 458 1417.1 456.4S1414.5 454.1 1412.8 454.9L1395.7 463 1374.6 455.5 1414.6 436.5C1416.3 435.7 1416.9 433.9 1416.2 432.3 1415.4 430.7 1413.6 430 1411.9 430.8L1366.1 452.5 1348.6 446.2 1364.2 438.9C1365.8 438.1 1366.5 436.3 1365.7 434.7 1364.9 433 1363.1 432.4 1361.5 433.1L1340.2 443.2 1323.3 437.2 1336.9 425.7 1360.8 427.5C1362.2 427.3 1364.1 425.9 1363.9 424.5 1363.9 422.5 1362.9 421.4 1361.1 420.8L1344 419.4 1357.6 408 1408.5 411.9C1410.5 411.9 1411.5 410.9 1412.2 409.1 1412.2 407.1 1410.6 405.9 1409.4 405.4L1364.6 401.6 1381.9 387.4 1401.1 388.9C1402.9 389.5 1404.1 387.9 1404.8 386.1 1404.6 384.7 1403.2 382.8 1401.2 382.8L1388.7 381.7 1400.7 371C1402.3 370.3 1402.3 368.2 1401 366.4 1400 365.3 1397.9 365.3 1396.9 366.3L1384.3 376.8 1385.6 363.6C1385.7 361.6 1384.1 360.4 1382.7 360.5 1380.9 359.9 1379.8 360.9 1379.4 362.1 1379.2 362.7 1379.2 362.7 1379 363.3L1377.5 382.5 1360.2 396.7 1363.8 352.4C1364.5 350.6 1362.9 349.4 1361.1 348.7 1359.6 348.9 1358.6 349.9 1358.2 351.1 1358 351.7 1358 351.7 1358 351.7L1353.2 403 1339.6 414.5 1341 397.3C1341 395.3 1340 394.2 1338.2 393.6 1336.8 393.8 1335.2 394.5 1334.7 395.7 1334.5 396.3 1334.5 396.3 1334.3 396.9L1332.6 420.8 1319 432.2 1315.7 414.8 1328.9 395C1330.1 393.4 1329.6 391.2 1328.6 390.1 1326.8 389.5 1324.8 389.4 1324.1 391.3L1314.3 405.4 1310.4 387.7 1339.9 345.2C1340.9 344.2 1340.3 342 1339.4 341 1337.5 340.3 1335.5 340.3 1334.3 341.9L1309 378.4 1305.2 356.6 1316.3 340.9C1317.5 339.3 1317 337.1 1315.2 336.4 1314.2 335.4 1312.2 335.3 1310.9 336.9L1303.6 347.9 1300.5 331.8C1300.3 330.4 1298.7 329.2 1296.7 329.1 1295.9 329.5 1294.8 330.5 1294.4 331.7 1294.4 331.7 1294.2 332.3 1294 332.9L1297.1 349 1286.1 341.7C1285.1 340.6 1282.9 341.2 1281.8 342.2 1281.6 342.8 1281.6 342.8 1281.6 342.8 1281 344.6 1281.8 346.2 1283 346.7L1298.7 357.7 1303.1 379.7 1266 354.2C1264.2 353.5 1262.8 353.7 1261.5 355.3 1261.5 355.3 1261.3 355.9 1261.3 355.9 1260.9 357.1 1261 358.5 1262.6 359.8L1304.5 389 1307.8 406.5 1293.6 396.7C1291.8 396 1289.8 396 1289.2 397.8 1288.6 397.6 1288.3 398.2 1288.3 398.2 1287.9 399.4 1288.7 401 1289.7 402.1L1309.4 415.2 1312.5 433.3 1295.6 427.3 1285.5 406C1284.8 404.4 1282.4 403.5 1280.7 404.3 1279.7 405.3 1279 407.1 1279.2 408.5L1287.2 424.3 1269.7 418 1248 372.2C1247.2 370.6 1245.4 369.9 1243.8 370.7 1242.1 371.5 1241.5 373.3 1242.3 374.9L1261.3 415 1240.2 407.5 1232 390.3C1231.3 388.7 1229.4 388 1227.8 388.8S1225.5 391.4 1226.3 393L1231.7 404.5 1216.7 399.1C1214.8 398.4 1213.2 399.2 1212.6 401 1211.9 402.8 1212.7 404.5 1214.5 405.1L1229.6 410.5 1217.9 416.5C1217.1 416.9 1216.3 417.3 1216.1 417.9 1215.8 418.5 1216 419.9 1216.4 420.7 1217.2 422.4 1219 423 1220.6 422.2L1238 413.5 1259.1 421 1218.8 440.6C1218 441 1217.2 441.4 1217 442 1216.7 442.6 1216.9 444 1217.3 444.8 1218.1 446.5 1219.9 447.1 1221.5 446.4L1267.5 424.1 1285 430.3 1268.9 437.4C1268.1 437.8 1267.6 439 1267.4 439.6 1267.2 440.2 1267 440.8 1267.4 441.7 1268.1 443.3 1270.6 444.2 1271.6 443.2L1293.5 433.3 1310.3 439.3 1296.5 451.4 1272.9 449.1C1271.5 449.2 1269.8 450 1269.4 451.2 1269.2 451.8 1269.2 451.8 1269.8 452 1269.1 453.8 1270.5 455.7 1272.5 455.7L1289.7 457.1 1275.9 469.2 1224.6 464.4C1223.1 464.6 1222.1 465.6 1221.7 466.8 1221.5 467.4 1221.5 467.4 1221.5 467.4 1221.4 469.4 1222.2 471.1 1224.2 471.1L1269.1 474.9 1251.8 489.1 1232.6 487.7C1230.6 487.6 1229.5 488.6 1229.1 489.8 1229.1 489.8 1228.9 490.4 1228.9 490.4 1228.8 492.5 1230.4 493.7 1231.6 494.1L1245 494.8 1232.4 505.3C1232.2 505.9 1232 506.5 1231.8 507.1 1231.5 507.7 1231.7 509.1 1232.1 509.9 1233.7 511.2 1235.5 511.8 1236.7 510.2L1249.3 499.8 1248 512.9C1248 514.9 1249.6 516.2 1250.8 516.6 1252.8 516.7 1254.1 515.1 1254.7 513.3L1256.1 494.1 1272.8 479.6 1269.3 523.9C1269.2 525.9 1270.6 527.8 1272 527.6 1274 527.6 1275.7 526.9 1275.7 524.8Z" fill="rgba(255, 255, 255, 1)"></path><path d="M885.6 246.9L851.6 217.9 850.7 201.6 862.1 211.4C863.1 212.8 864.8 212.3 866.2 211.4 866.8 210.3 866.8 208.3 865.7 207.7L850.2 193.8 848.8 177.8 863.1 185 869.8 204.8C869.8 204.8 870.2 205.3 870.2 205.3 870.8 206.2 872.3 206.5 873.6 206.4 875 205.4 875.6 204.3 875.1 202.6L870.2 188.4 884.5 195.5 899.5 237.5C899.5 237.5 899.3 238.3 899.3 238.3 900 239.2 901.5 239.5 902.8 239.3 904.5 238.9 905.2 237 904.3 235.6L891.5 198.9 909.3 207.1 915 223.5C915 223.5 915 223.5 915.4 224 916 224.9 917.1 225.5 918.3 225.4 919.7 224.4 920.8 223 920.3 221.3L916.3 210.5 929.3 216.6C930.7 217.7 932.1 216.7 932.7 215.6 933.8 214.2 933.3 212.5 931.4 211.8L918.9 205.3 929.6 202.1C931 201.2 932.1 199.8 931.1 198.4 930.7 196.7 929.6 196.1 927.9 196.6L911.4 202.3 894.1 193.8 931.3 180.7C932.5 180.5 933.3 178.7 932.8 176.9 932.2 176 930.8 174.9 929.1 175.4L887.1 190.4 872.8 183.2 887 178.3C888.7 177.8 889 176.2 888.5 174.5 888.4 173.3 886.5 172.5 885.3 172.7L865.7 179.9 850.9 173 864.4 163.9 884.6 167.7C886.1 168 887.5 167.1 887.8 165.5 888.4 164.4 887.2 162.6 885.6 162.3L870.8 159.5 884.3 150.3 928.2 159.1C929.7 159.4 931.1 158.5 931.4 156.9 931.7 155.4 930.8 154 929.2 153.7L890.8 145.9 906.5 135.2 923.6 138.5C925.2 138.8 926.6 137.9 926.9 136.3 927.2 134.8 926.2 133.4 924.7 133.1L913.5 130.5 925 122.7C926.4 121.7 926.7 120.2 925.8 118.8 924.8 117.4 923.3 117.1 921.9 118L910.3 125.9 912.4 115C912.7 113.4 911.7 112.1 910.2 111.8S907.2 112.4 906.9 114L903.8 130.3 887.6 141.3 894.9 103.2C895.2 101.6 894.2 100.2 892.7 99.9 891.1 99.7 889.7 100.6 889.4 102.2L881.1 145.7 867.7 154.8 870.5 140.1C870.8 138.5 869.9 137.1 868.3 136.8 866.8 136.5 865.4 137.5 865.1 139L861.2 159.2 848.2 168.1 847.2 152.5 860.7 136.6C861.3 135.5 861.3 133.5 860.2 132.8 858.8 131.8 857.6 131.9 856.2 132.9L846.3 144.3 845.3 128.8 874.3 94.8C875.4 93.4 875.2 92.2 874.3 90.8 872.9 89.7 871.2 90.2 870.2 90.8L844.4 120.6 843.3 101 854.2 88.2C855.6 87.2 855.1 85.5 854.2 84.1 853.1 83.5 851.1 83.5 850 84.9L842.8 93.2 841.4 79.3C841.7 77.7 840.3 76.6 838.3 76.7 837 76.8 836 78.2 836.1 79.5L837 93.8 828.4 86.1C827 85 825.3 85.5 824.7 86.6 823.3 87.5 823.5 88.7 824.1 89.7 824.4 90.1 824.4 90.1 824.7 90.6L837.6 101.5 838.7 121.1 809.2 95.7C808.3 94.3 806.6 94.8 805.2 95.7 804.6 96.8 804.8 98.1 805.4 99 805.7 99.5 805.7 99.5 805.7 99.5L839.5 129.3 840.6 144.8 829.2 135C827.8 133.9 826.5 134.1 825.1 135 824.5 136.1 824.2 137.7 824.8 138.6 825.2 139.1 825.2 139.1 825.5 139.5L841.4 153 842.5 168.6 828.5 161.9 821.3 142.4C820.8 140.6 819 139.9 817.7 140.1 816.3 141 815.2 142.4 816.2 143.8L821.1 158 806.6 151.6 791.8 108.9C791.6 107.7 789.8 106.9 788.5 107.1 787.1 108 786.1 109.4 786.5 111.1L799.3 147.8 782 139.3 776.6 123.3C776.1 121.6 774.2 120.9 772.8 121.8 771.6 122 770.5 123.4 771 125.1L775 135.9 762 129.8C760.9 129.2 759.2 129.7 758.1 131.1 758 131.9 758.2 133.1 758.8 134 758.8 134 759.1 134.5 759.4 135L772.4 141.1 761.5 145C760.3 145.2 759.5 147.1 759.7 148.3 760 148.8 760 148.8 760 148.8 761 150.2 762.5 150.5 763.4 149.8L779.4 144.4 797.2 152.7 760 165.7C758.6 166.7 758 167.8 758.5 169.5 758.5 169.5 758.8 169.9 758.8 169.9 759.4 170.9 760.5 171.5 762.2 171L804.5 156.5 818.5 163.2 804.3 168.1C802.9 169.1 801.8 170.5 802.8 171.9 802.3 172.2 802.6 172.6 802.6 172.6 803.2 173.6 804.8 173.9 806 173.7L825.6 166.5 839.9 173.7 826.9 182.5 806.7 178.7C805.2 178.4 803.3 179.6 803 181.2 803.2 182.4 804.1 183.8 805.2 184.4L820.4 186.9 807 196.1 763.5 187.7C761.9 187.4 760.5 188.4 760.2 189.9 759.9 191.5 760.9 192.9 762.4 193.2L800.5 200.5 784.3 211.5 768 208.4C766.4 208.1 765 209 764.7 210.6S765.4 213.5 766.9 213.8L777.8 215.9 766.3 223.8C764.9 224.7 764.6 226.3 765.5 227.6 766.5 229 768 229.3 769.4 228.4L781 220.5 779.2 231.9C779.1 232.7 778.9 233.4 779.2 233.9 779.5 234.4 780.6 235 781.4 235.1 783 235.4 784.4 234.5 784.7 232.9L787.5 216.1 803.7 205.1 796.7 243.7C796.6 244.5 796.4 245.2 796.7 245.7 797 246.2 798.1 246.8 798.9 246.9 800.5 247.2 801.9 246.3 802.2 244.7L810.2 200.7 823.6 191.6 820.3 206.7C820.2 207.4 820.8 208.4 821.1 208.8 821.4 209.3 821.7 209.8 822.5 209.9 824.1 210.2 825.9 208.9 825.8 207.7L830.1 187.2 843.1 178.4 844.4 194.3 830.6 209.8C830 210.9 829.7 212.5 830.3 213.4 830.6 213.9 830.6 213.9 831.1 213.6 832 215 834.1 214.9 835.1 213.5L845 202.1 846.3 218.1 816.5 251.9C815.9 253 816.1 254.2 816.7 255.2 817 255.6 817 255.6 817 255.6 818.4 256.7 820 257 821 255.6L846.9 225.8 848 245.4 837.1 258.2C836 259.6 836.2 260.9 836.8 261.8 836.8 261.8 837.1 262.3 837.1 262.3 838.5 263.4 840.2 262.9 841.1 262.2L848.5 253.2 849.4 267.5C849.7 267.9 850.1 268.4 850.4 268.8 850.7 269.3 851.8 269.9 852.6 270.1 854.3 269.6 855.6 268.6 855.2 266.9L854.3 252.7 862.9 260.3C864.3 261.4 866 260.9 866.9 260.3 868 258.9 867.5 257.2 866.6 255.8L853.7 244.9 852.2 225.6 881.6 251C883 252.1 885 252.1 885.6 251 886.7 249.6 887 248 885.6 246.9Z" fill="rgba(51, 121, 194, 0.58)"></path><path d="M448.3 556.7L417 516.4 419.7 497.9 430.2 511.6C430.9 513.3 433 513.2 434.7 512.4 435.7 511.4 436.1 509.1 435 508.2L420.8 489.1 423 470.9 437.4 482.2 440.3 505.9C440.3 505.9 440.6 506.5 440.6 506.5 441.1 507.7 442.8 508.4 444.2 508.5 446 507.8 446.9 506.7 446.7 504.7L444.5 487.6 458.9 498.9 466 549.3C466 549.3 465.7 550.2 465.7 550.2 466.2 551.3 467.9 552 469.3 552.1 471.3 552 472.6 550.1 471.8 548.3L466 504.3 484 517.6 486.7 537.3C486.7 537.3 486.7 537.3 486.9 537.8 487.4 539 488.5 540 489.9 540.1 491.7 539.3 493.2 538 493.1 536L491.1 522.9 504.2 532.7C505.5 534.3 507.3 533.5 508.2 532.4 509.8 531.1 509.6 529.1 507.7 527.8L495.2 517.8 507.9 516.6C509.7 515.9 511.2 514.6 510.4 512.8 510.3 510.8 509.2 509.8 507.2 510L487.5 512.6 470.1 499.1 514.7 493C516.1 493.1 517.4 491.2 517.2 489.2 516.7 488 515.4 486.4 513.4 486.6L463 493.7 448.6 482.4 465.6 480.1C467.7 480 468.4 478.3 468.2 476.3 468.3 474.9 466.4 473.6 465 473.5L441.5 477 426.5 466 443.6 458.8 465.3 467.8C467 468.5 468.8 467.7 469.5 466.1 470.4 465 469.4 462.6 467.8 461.9L451.9 455.4 469 448.2 516.1 468.1C517.8 468.8 519.6 468.1 520.2 466.4 520.9 464.7 520.2 463 518.5 462.3L477.3 444.8 497.3 436.4 515.8 444C517.4 444.7 519.2 444 519.9 442.3 520.6 440.6 519.8 438.8 518.2 438.2L506.2 432.7 521 426.6C522.8 425.8 523.4 424.2 522.7 422.4 522 420.6 520.3 419.9 518.5 420.7L503.7 426.8 508.6 415.1C509.3 413.4 508.5 411.7 506.8 411S503.4 411 502.7 412.7L495.5 430.3 474.8 438.9 491.7 397.9C492.4 396.2 491.6 394.4 490 393.7 488.3 393.1 486.5 393.8 485.8 395.5L466.5 442.3 449.4 449.5 455.9 433.6C456.6 431.9 455.9 430.1 454.2 429.4 452.5 428.8 450.8 429.5 450.1 431.2L441.1 452.9 424.6 459.8 426.9 442.2 445.8 427.4C446.7 426.3 447.1 424.1 446 423.1 444.7 421.6 443.3 421.5 441.5 422.3L427.9 432.8 430.2 415.2 470.6 383.8C472.1 382.5 472.2 381 471.5 379.3 470.1 377.7 468.1 377.9 466.9 378.4L431.2 405.8 434.4 383.6 449.6 371.7C451.4 371 451.2 369 450.5 367.2 449.4 366.3 447.1 365.8 445.6 367.2L435.6 374.8 437.3 358.8C438 357.2 436.6 355.6 434.4 355.2 433 355.1 431.4 356.4 431.3 357.9L429.1 374.1 421.2 363.5C419.9 361.9 417.8 362.1 416.9 363.2 415.1 363.9 415 365.3 415.5 366.5 415.8 367.1 415.8 367.1 416 367.7L427.9 382.9 424.6 405 397.5 369.9C396.8 368.1 394.8 368.2 393 369 392 370.1 391.9 371.5 392.4 372.7 392.7 373.3 392.7 373.3 392.7 373.3L423.7 414.4 421.3 432 410.8 418.4C409.5 416.9 408 416.8 406.3 417.5 405.3 418.6 404.6 420.3 405.1 421.5 405.4 422.1 405.4 422.1 405.6 422.6L420.4 441.5 418 459.1 403.9 448.3 400.3 424.9C400.2 422.8 398.2 421.6 396.8 421.5 395 422.2 393.5 423.5 394.3 425.3L396.5 442.4 381.8 431.9 375 380.7C375.1 379.2 373.1 377.9 371.7 377.8 369.9 378.6 368.4 379.9 368.6 381.9L374.4 425.9 357 412.4 354.6 393.3C354.4 391.3 352.5 390 350.7 390.7 349.3 390.6 347.8 392 347.9 394L349.9 407 336.8 397.2C335.7 396.3 333.7 396.5 332.2 397.8 331.8 398.6 331.7 400.1 332.2 401.2 332.2 401.2 332.5 401.8 332.7 402.4L345.8 412.2 332.8 414.2C331.3 414.1 330.1 416 330 417.4 330.2 418 330.2 418 330.2 418 330.9 419.8 332.6 420.5 333.8 420L352.9 417.6 370.9 430.9 326.3 437C324.5 437.7 323.6 438.8 323.8 440.8 323.8 440.8 324 441.4 324 441.4 324.5 442.6 325.6 443.5 327.6 443.4L378.3 436.8 392.4 447.6 375.4 449.8C373.6 450.6 372.1 451.9 372.8 453.7 372.2 453.9 372.5 454.5 372.5 454.5 372.9 455.7 374.6 456.4 376 456.5L399.5 452.9 414 464.2 397.4 471.1 375.7 462.2C374 461.5 371.6 462.5 370.9 464.1 370.8 465.6 371.6 467.3 372.6 468.3L389.1 474.6 372 481.7 325.1 462.4C323.5 461.7 321.7 462.5 321 464.1 320.3 465.8 321.1 467.6 322.7 468.3L363.7 485.2 343.1 493.8 325.5 486.5C323.8 485.9 322 486.6 321.3 488.3S321.4 491.7 323.1 492.4L334.8 497.2 320 503.4C318.2 504.1 317.6 505.8 318.3 507.6 319 509.3 320.7 510 322.5 509.3L337.3 503.1 332.7 515.4C332.3 516.3 332 517.1 332.2 517.7 332.5 518.3 333.6 519.2 334.4 519.6 336.1 520.3 337.8 519.5 338.5 517.9L345.5 499.7 366.2 491.1 349.6 532.7C349.2 533.5 348.9 534.4 349.1 534.9 349.4 535.5 350.4 536.5 351.3 536.8 353 537.5 354.7 536.8 355.4 535.1L374.5 487.6 391.6 480.5 384.5 496.6C384.1 497.5 384.6 498.7 384.9 499.2 385.1 499.8 385.3 500.4 386.2 500.8 387.9 501.5 390.2 500.5 390.3 499.1L399.9 477 416.4 470.2 414.3 488.4 395.2 502.5C394.3 503.6 393.6 505.3 394.1 506.5 394.4 507.1 394.4 507.1 394.9 506.8 395.7 508.6 398 509 399.5 507.7L413.1 497.2 411 515.4 369.8 546.4C368.9 547.5 368.8 548.9 369.3 550.1 369.5 550.7 369.5 550.7 369.5 550.7 370.9 552.2 372.5 552.9 374.1 551.6L409.8 524.2 406.6 546.4 391.4 558.2C389.9 559.6 389.8 561 390.3 562.2 390.3 562.2 390.5 562.8 390.5 562.8 391.8 564.3 393.9 564.1 395 563.6L405.4 555.2 403.1 571.4C403.4 572 403.6 572.6 403.9 573.1 404.1 573.7 405.2 574.7 406 575 408 574.9 409.8 574.1 409.7 572.1L411.9 555.9 419.8 566.5C421.1 568 423.2 567.9 424.3 567.4 425.9 566.1 425.7 564 425 562.3L413.1 547.1 415.8 525.2 442.9 560.3C444.2 561.9 446.5 562.3 447.4 561.2 449 559.9 449.6 558.2 448.3 556.7Z" fill="rgba(255, 255, 255, 1)"></path><path d="M1416.9 85.4L1412.4 94.4 1408.5 88.9C1408.1 88.3 1407.1 88 1406.2 88.4 1405.6 89.1 1405.3 90.1 1405.7 90.7L1410.7 98 1406.5 106.3 1396.4 91.3C1395.7 90.4 1394.8 90.2 1394.2 90.9 1393.2 91.3 1393 92.2 1393.7 93.1L1404.8 109.7 1401.2 117.3 1381.7 118.7 1377.4 112.6 1387 93.6C1387 93.3 1386.9 93 1386.9 92.7 1386.9 92.4 1386.5 91.7 1386.2 91.4 1385.2 90.9 1384.2 91.3 1384 92.2L1375.3 109.6 1370.3 101.9 1374.4 92.9C1374.7 92.9 1374.7 92.6 1374.7 92.3 1374.7 91.6 1374.3 91 1373.6 90.7 1373 90.5 1372 90.9 1371.4 91.5L1368.1 98.8 1361.7 89.4C1361.3 88.8 1360.3 88.5 1359.4 88.9 1358.8 89.6 1358.5 90.6 1358.9 91.2L1365 100 1358.3 100.5C1357.3 100.6 1356.8 101.6 1356.8 102.2 1356.9 103.2 1357.6 104.1 1358.5 104L1367.2 103.4 1372.2 111.1 1354.3 112.4C1353.4 112.4 1352.8 113.1 1352.8 114.1 1352.9 115 1353.6 115.6 1354.6 115.5L1374.3 114.1 1379 120.5 1370.3 138.1 1363 138.7 1351.5 121.9C1351.1 120.9 1349.8 120.7 1349.2 121.4 1348.3 121.8 1348.3 122.7 1348.7 123.7L1359.1 139 1349.9 139.6 1344.8 132C1344.5 131.4 1343.2 131.1 1342.6 131.5S1341.7 133.2 1342.1 134.1L1346.1 139.9 1334.9 140.7C1333.9 140.8 1333.4 141.8 1333.4 142.7 1333.5 143.4 1334.2 144.3 1335.1 144.2L1346.3 143.4 1343.3 150C1343 150.7 1343.1 151.7 1344.1 152.2 1344.7 152.5 1346 152.1 1346.2 151.4L1350.1 143.1 1359.4 142.5 1351.3 159.1C1351 160.1 1351.1 161 1352.1 161.6 1352.8 161.9 1354 161.5 1354.3 160.8L1363.2 142.2 1370.6 141.7 1381.7 157.9 1378 164.9 1358.2 166.3C1357.3 166.4 1356.7 167 1356.7 168 1356.8 169 1357.5 169.9 1358.5 169.8L1376.4 168.5 1372.5 176.8 1363.8 177.4C1362.9 177.5 1362.3 178.2 1362.4 179.1 1362.4 180.1 1363.1 180.7 1364.1 180.6L1370.8 180.1 1366 189.8C1365.7 190.5 1366.2 191.7 1366.8 192 1367.8 192.2 1368.8 192.2 1369 191.2L1374.1 181.2 1378.4 187.6C1379.1 188.2 1380 188.5 1380.7 188.1 1381.3 187.7 1381.5 187.1 1381.5 186.4 1381.5 186.4 1381.5 186.1 1381.1 185.8L1375.7 177.5 1379.6 169.2 1390.7 185.1C1391.1 186.1 1392.1 186.3 1393 185.6 1393.3 185.3 1393.6 184.9 1393.5 184.3 1393.5 184 1393.5 183.6 1393.5 183.3L1381.3 165.9 1384.7 159.2 1404.1 157.8 1408.8 164.9 1400.2 182.8C1399.6 183.8 1400 184.8 1401 185 1401.6 185.6 1402.6 185.2 1403.2 184.2L1411 167.9 1416.3 175.6 1412.4 183.6C1412.1 184.2 1412.5 185.2 1413.2 185.7 1414.2 186 1415.1 185.9 1415.4 184.9L1418.5 178.9 1424.2 187.2C1424.6 188.1 1425.6 188.1 1426.5 187.7 1426.8 187.3 1427.1 186.7 1427 186 1427 186 1427 185.7 1427 185.4L1420.9 176.5 1428.9 175.9C1429.5 175.9 1430.4 175.2 1430.3 174.2 1430.3 173.3 1429.3 172.7 1428.6 172.8L1418.7 173.5 1413.4 165.8 1432.8 164.4C1433.8 164.4 1434.4 163.4 1434.3 162.4S1433.5 160.9 1432.6 160.9L1411.2 162.5 1406.9 156 1415.6 138.4 1423.9 137.8 1435.4 154.9C1436.1 155.5 1437 155.8 1438 155.4 1438.3 155.1 1438.5 154.4 1438.5 153.8 1438.5 153.4 1438.4 153.1 1438.1 152.8L1427.7 137.5 1436.9 136.9 1442.3 144.5C1442.7 145.1 1443.7 145.4 1444.6 145 1445.2 144.3 1445.4 143.3 1445.1 142.7L1440.8 136.6 1451 135.9C1451.6 135.8 1452.5 134.8 1452.5 134.1 1452.4 133.2 1451.4 132.3 1450.7 132.3L1440.5 133.1 1443.9 126.7C1443.9 126.4 1443.9 126.1 1443.8 125.8 1443.8 125.1 1443.4 124.5 1443.1 124.2 1442.1 124 1441.2 124.4 1440.6 125.1L1436.7 133.4 1427.4 134 1435.5 117.4C1436.1 116.4 1435.7 115.5 1435.1 115.2 1434.1 114.6 1433.1 115 1432.5 115.7L1423.6 134.3 1415.3 134.9 1404.2 118.7 1407.5 111.7 1428.9 110.2C1429.9 110.1 1430.5 109.4 1430.4 108.5 1430.3 107.5 1429.7 106.9 1428.7 107L1409.2 108.4 1413.4 100.1 1423.3 99.3C1424 99.3 1424.9 98.3 1424.8 97.3 1424.7 96.4 1423.7 95.8 1423.1 95.8L1415.1 96.4 1419.9 86.8C1419.8 86.4 1419.8 86.4 1419.8 86.1 1419.8 85.5 1419.4 84.9 1419.1 84.6 1418.1 84.3 1417.1 84.7 1416.9 85.4ZM1411.5 135.2L1412.6 137 1411.7 138.7 1404.7 153 1403.9 154.7 1402 154.8 1386.4 155.9 1384.4 156.1 1383.4 154.5 1374.4 141.4 1373.3 139.9 1374.1 137.9 1381.2 123.9 1382 121.9 1383.9 121.8 1399.5 120.6 1401.4 120.5 1402.5 122.3 1411.5 135.2Z" fill="rgba(255, 255, 255, 1)"></path><path d="M1046.1 436.1L1043.4 474.3 1032.6 483.3 1033.6 470.4C1034 469 1032.8 468.1 1031.5 467.6 1030.4 467.8 1029 468.8 1029.2 469.9L1027.5 487.6 1017.2 496.7 1014.8 483.2 1025.1 468.5C1025.1 468.5 1025.2 468 1025.2 468 1025.6 467.1 1025 465.9 1024.2 465.1 1022.9 464.6 1021.8 464.8 1020.9 466L1013.6 476.6 1011.2 463.1 1032.5 431.4C1032.5 431.4 1033.1 431.1 1033.1 431.1 1033.4 430.2 1032.8 429 1032.1 428.2 1030.9 427.3 1029.2 427.7 1028.7 429L1009.9 456.5 1006.5 440.1 1014.9 427.8C1014.9 427.8 1014.9 427.8 1015.1 427.3 1015.4 426.4 1015.3 425.3 1014.5 424.6 1013.1 424.1 1011.6 424.1 1010.7 425.3L1005.3 433.5 1002.9 421.5C1002.9 420 1001.5 419.5 1000.5 419.7 998.9 419.6 998 420.8 998.4 422.5L1000.4 434.4 992.7 428.7C991.4 428.2 989.9 428.2 989.4 429.5 988.5 430.7 988.6 431.8 989.8 432.7L1002.1 441.1 1005.1 457.4 977.1 438.4C976.4 437.7 974.7 438.1 973.8 439.3 973.4 440.2 973.4 441.7 974.6 442.7L1006.3 463.9 1008.7 477.5 998 470.2C996.8 469.2 995.6 469.8 994.7 471 993.9 471.8 994.3 473.5 995.1 474.2L1010 484 1012.8 497.7 999.7 493.1 992 477.2C991.4 476 990.1 475.5 988.8 476.1 987.8 476.2 987.1 478.1 987.7 479.3L993.3 490.9 980.2 486.3 963.9 451.6C963.3 450.4 961.9 449.9 960.7 450.5 959.5 451.1 959 452.4 959.6 453.7L973.8 484.1 958.4 478.7 952 465.2C951.4 464 950 463.5 948.8 464.1 947.6 464.7 947.1 466.1 947.7 467.3L951.6 476.3 940.3 472.4C939 471.9 937.7 472.5 937.3 473.8 936.8 475.2 937.4 476.4 938.7 476.9L950.1 480.8 941.5 485C940.3 485.6 939.8 486.9 940.4 488.1S942.3 489.8 943.6 489.3L956.4 483.1 972.3 488.6 942.3 503C941.1 503.6 940.6 505 941.2 506.2 941.8 507.4 943.1 507.9 944.3 507.3L978.6 490.8 991.7 495.4 980.1 501C978.9 501.6 978.4 503 979 504.2 979.6 505.4 981 505.9 982.2 505.3L998.1 497.7 1010.8 502.1 1000.6 510.7 982.7 509.6C981.7 509.7 980.3 510.7 980.4 511.8 980.4 513.3 981.1 514.1 982.5 514.6L995.4 515.5 985.2 524.2 947 521.5C945.5 521.5 944.7 522.2 944.3 523.6 944.2 525.1 945.4 526 946.3 526.3L980 529 967.1 539.7 952.7 538.7C951.3 538.2 950.4 539.5 949.9 540.8 950.1 541.9 951.1 543.3 952.6 543.3L962 544 953.1 552.1C951.9 552.7 951.8 554.2 952.9 555.6 953.6 556.3 955.2 556.4 955.9 555.6L965.3 547.7 964.4 557.6C964.4 559.1 965.6 560 966.6 559.9 968 560.4 968.8 559.6 969.1 558.7 969.2 558.3 969.2 558.3 969.4 557.8L970.4 543.4 983.3 532.7 980.8 565.9C980.3 567.2 981.5 568.2 982.9 568.6 984 568.5 984.7 567.7 985.1 566.8 985.2 566.4 985.2 566.4 985.2 566.4L988.5 527.9 998.7 519.2 997.7 532.1C997.7 533.6 998.4 534.4 999.8 534.9 1000.9 534.7 1002.1 534.1 1002.4 533.2 1002.6 532.8 1002.6 532.8 1002.7 532.3L1003.9 514.4 1014.1 505.8 1016.6 518.9 1006.8 533.8C1005.9 535 1006.3 536.6 1007.1 537.4 1008.4 537.9 1009.9 537.9 1010.4 536.6L1017.7 525.9 1020.7 539.1 998.8 571.1C998 571.9 998.5 573.6 999.2 574.3 1000.6 574.8 1002.1 574.8 1003 573.6L1021.8 546.1 1024.7 562.4 1016.5 574.3C1015.6 575.5 1016 577.2 1017.4 577.6 1018.1 578.4 1019.6 578.4 1020.6 577.2L1026 569 1028.4 581C1028.5 582.1 1029.7 583 1031.3 583 1031.9 582.7 1032.6 582 1033 581.1 1033 581.1 1033.1 580.6 1033.3 580.2L1030.9 568.1 1039.1 573.6C1039.9 574.3 1041.6 573.9 1042.3 573.2 1042.5 572.7 1042.5 572.7 1042.5 572.7 1043 571.3 1042.4 570.1 1041.5 569.8L1029.6 561.6 1026.2 545.1 1054.2 564.1C1055.5 564.5 1056.6 564.4 1057.5 563.2 1057.5 563.2 1057.7 562.8 1057.7 562.8 1058 561.9 1057.9 560.8 1056.7 559.9L1025.1 538.1 1022.6 525 1033.2 532.3C1034.6 532.8 1036.1 532.8 1036.6 531.5 1037 531.6 1037.2 531.2 1037.2 531.2 1037.5 530.3 1036.9 529.1 1036.2 528.3L1021.3 518.5 1018.9 505 1031.6 509.4 1039.3 525.3C1039.9 526.5 1041.7 527.1 1042.9 526.6 1043.7 525.8 1044.1 524.5 1044 523.4L1037.9 511.6 1051.1 516.2 1067.6 550.5C1068.2 551.7 1069.5 552.2 1070.8 551.6 1072 551 1072.4 549.6 1071.9 548.4L1057.4 518.4 1073.3 524 1079.5 536.8C1080.1 538 1081.4 538.5 1082.6 537.9S1084.3 536 1083.8 534.8L1079.6 526.2 1091 530.2C1092.3 530.6 1093.5 530 1094 528.7 1094.5 527.3 1093.9 526.1 1092.5 525.6L1081.2 521.7 1089.9 517.1C1090.5 516.8 1091.2 516.5 1091.3 516 1091.5 515.6 1091.3 514.5 1091 513.9 1090.5 512.7 1089.1 512.2 1087.9 512.8L1074.9 519.4 1059 513.9 1089.1 499C1089.8 498.7 1090.4 498.4 1090.5 498 1090.7 497.5 1090.5 496.5 1090.3 495.8 1089.7 494.6 1088.3 494.1 1087.1 494.7L1052.7 511.7 1039.5 507.1 1051.6 501.6C1052.2 501.3 1052.5 500.4 1052.7 500 1052.9 499.5 1053 499.1 1052.7 498.5 1052.1 497.2 1050.3 496.6 1049.5 497.4L1033.2 504.9 1020.5 500.4 1030.8 491.3 1048.6 492.9C1049.6 492.8 1050.8 492.2 1051.2 491.3 1051.3 490.9 1051.3 490.9 1050.9 490.7 1051.3 489.3 1050.3 488 1048.8 487.9L1035.9 487 1046.2 477.9 1084.7 481.2C1085.8 481.1 1086.5 480.3 1086.9 479.4 1087 478.9 1087 478.9 1087 478.9 1087 477.4 1086.4 476.2 1084.9 476.2L1051.3 473.6 1064.2 462.8 1078.6 463.8C1080.1 463.8 1080.9 463.1 1081.2 462.2 1081.2 462.2 1081.4 461.7 1081.4 461.7 1081.4 460.2 1080.2 459.3 1079.3 458.9L1069.3 458.5 1078.6 450.6C1078.8 450.1 1079 449.7 1079.1 449.2 1079.3 448.8 1079.1 447.7 1078.8 447.1 1077.6 446.2 1076.3 445.7 1075.3 446.9L1066 454.8 1066.9 444.9C1066.9 443.4 1065.7 442.5 1064.8 442.2 1063.3 442.2 1062.3 443.4 1061.9 444.7L1060.9 459.1 1048.4 470 1050.9 436.8C1050.9 435.3 1049.9 433.9 1048.8 434 1047.3 434 1046.1 434.6 1046.1 436.1Z" fill="rgba(51, 121, 194, 0.58)"></path><path d="M49.9 70L58.4 77.3 52.1 79.8C51.4 80 50.9 80.9 51 81.9 51.5 82.6 52.4 83.1 53.2 82.6L61.2 79.8 68 85.3 51.3 91C50.6 91.6 50.1 92.4 50.3 93.1 50.8 94.2 51.6 94.7 52.4 94.2L70.8 87.7 80.9 96.4 66 99.9 78.8 108.4 66.2 112.9 51.2 100.5C51.3 100.1 51 100.1 50.7 100 50 99.9 49.4 100.1 48.9 100.7 48.5 101.3 48.6 102.3 49.2 103L62.7 114.2 54.4 117 47.9 111.6C47.7 111.2 47.4 111.1 47 111.1 46.7 111 46 111.2 45.6 111.8 45.2 112.4 45.3 113.4 45.9 113.8L50.9 118.3 40.5 122.2C39.5 122.4 39.3 123.3 39.4 124.3 39.6 125 40.5 125.5 41.6 125L52 121.4 50.8 128C50.6 129 51.5 129.8 52.1 129.9 53 130 53.8 129.5 53.9 128.6L55.5 120.1 63.8 117.4 60.7 134.4C60.5 135.3 61.1 136.1 62 136.2 62.6 136.3 63.7 135.9 63.9 134.9L67.3 116 79.8 111.5 75.6 126 89.1 119.3 86.7 132.6 68.6 139.1C67.6 139.5 67.4 140.5 67.6 141.1 67.8 141.8 68.7 142.3 69.7 142.2L86.1 136 84.6 144.5 76.5 147.6C75.5 147.8 75 148.7 75.5 149.7 75.7 150.4 76.6 150.9 77.6 150.4L83.9 148.3 81.9 159.3C81.7 160.3 82.2 161 83.2 161.2S84.9 160.9 85 159.9L87 148.9 92.1 153.1C92.9 153.9 93.9 153.7 94.4 153.1 95.2 152.3 95 151.3 94.1 150.8L87.7 145.1 89.2 136.6 102.4 148.1C103.3 148.6 104.3 148.4 104.8 147.9 105.6 147 105.4 146 104.5 145.6L89.9 133.1 92.3 119.9 102.6 130.9 103.7 115.8 113.9 124.5 110.5 143.4C110.3 144.3 111.1 145.1 111.7 145.2 112.7 145.4 113.4 144.9 113.6 143.9L116.7 126.6 123.5 132.4 122 140.9C121.8 141.9 122.3 142.6 123.3 142.8 123.9 142.9 124.9 142.4 125.1 141.5L126.3 134.9 134.8 141.9C135.6 142.7 136.6 142.6 137.1 141.7 137.5 141.1 137.7 140.2 136.8 139.7L128.4 132.3 134.7 129.9C135.4 129.7 135.9 128.8 135.7 128.1 135.5 127.4 134.9 127 134.6 126.9 134.3 126.9 133.9 126.8 133.6 127.1L125.6 129.9 118.8 124.4 135.4 118.6C136.2 118.1 136.7 117.2 136.5 116.5 136.3 115.9 135.7 115.4 135.1 115.3 134.7 115.3 134.7 115.3 134.4 115.5L116 121.9 105.8 113.3 120.8 109.8 108 101.3 120.5 96.7 135.5 109.2C136.1 109.6 137 109.8 137.8 109 138.3 108.4 138.1 107.4 137.6 106.7L124 95.4 132.3 92.7 138.8 98.1C139.3 98.9 140.3 98.7 141.1 97.9 141.6 97.3 141.4 96.3 140.9 95.6L135.8 91.4 146.3 87.4C147.3 87.3 147.5 86.3 147.3 85.3 147.1 85 146.5 84.5 146.2 84.5 145.9 84.4 145.5 84.4 145.2 84.6L134.8 88.3 136 81.7C136.1 80.7 135.3 79.9 134.7 79.8L134.7 79.8C133.7 79.6 133 80.1 132.8 81.1L131.3 89.6 123 92.3 126 75.3C126.2 74.4 125.7 73.6 124.8 73.4S123.1 73.8 122.9 74.7L119.5 93.6 106.9 98.2 111.2 83.7 97.6 90.3 100 77.1 118.1 70.6C119.2 70.2 119.3 69.2 119.1 68.5 118.9 67.8 118.1 67.4 117.1 67.5L100.7 73.3 102.2 65.1 110.2 62C111.2 61.9 111.7 61 111.3 59.9 111.1 59.3 110.2 58.8 109.2 58.9L102.9 61.4 104.9 50.3C105 49.4 104.5 48.6 103.6 48.5S101.9 48.8 101.7 49.8L99.7 60.8 94.6 56.6C94.4 56.2 94.1 56.2 93.7 56.1 93.1 56 92.7 56.3 92.4 56.5 91.6 57.4 91.7 58.4 92.6 58.8L99 64.6 97.5 73.1 84.3 61.6C84 61.5 83.7 61.4 83.4 61.4 82.7 61.3 82.4 61.5 82 61.8 81.2 62.6 81.3 63.6 82.2 64.1L96.9 76.5 94.5 89.7 84.1 78.8 83 93.8 72.9 85.2 76.3 66.3C76.5 65.3 75.6 64.5 75 64.4 74.1 64.3 73.3 64.8 73.1 65.7L70.1 82.7 63.2 77.3 64.8 68.8C65 67.8 64.4 67.1 63.5 66.9S61.8 67.2 61.6 68.2L60.4 74.8 52 67.7C51.7 67.4 51.4 67.3 51.1 67.2 50.8 67.2 50.1 67.4 49.6 68 49.2 68.5 49 69.5 49.9 70ZM86.7 86.1L95.1 95.1 106.2 89.6 102.7 101.7 112.9 108.4 101 111.4 100.1 123.6 91.6 114.6 80.5 120.1 84 108.3 73.9 101.3 85.7 98.6 86.7 86.1Z" fill="rgba(255, 255, 255, 1)"></path><path d="M636.3 460.2L625.8 483.5 617 486.6 620.6 478.7C621.2 478 620.7 477.1 619.9 476.5 619.2 476.4 618.1 476.7 618 477.4L612.9 488.1 604.3 491.4 606 482.4 615.8 475.6C615.8 475.6 616 475.3 616 475.3 616.4 474.8 616.3 473.9 616 473.3 615.3 472.7 614.6 472.5 613.7 473L606.7 478 608.3 469 629 454.1C629 454.1 629.4 454 629.4 454 629.8 453.6 629.7 452.7 629.4 452 628.9 451.1 627.8 451 627.1 451.8L609 464.6 610.7 453.5 618.8 447.8C618.8 447.8 618.8 447.8 619 447.5 619.4 447 619.6 446.3 619.3 445.7 618.5 445.1 617.6 444.7 616.7 445.2L611.4 449.2 612.7 441.1C613.1 440.1 612.3 439.5 611.6 439.4 610.7 439 609.8 439.5 609.7 440.7L608.2 448.6 604.7 443.2C604 442.6 603.1 442.2 602.4 443 601.6 443.5 601.4 444.2 602 445.1L607.7 453.1 605.8 464 592.7 445.7C592.4 445.1 591.3 444.9 590.4 445.5 590 446 589.6 446.9 590.2 447.8L605.1 468.4 603.4 477.4 598.4 470.4C597.9 469.5 597 469.6 596.2 470.2 595.5 470.4 595.4 471.6 595.7 472.2L602.7 481.8 601.3 491 594.2 485.1 593.1 473.4C593 472.5 592.2 471.9 591.3 472 590.6 471.8 589.8 472.8 589.9 473.7L590.7 482.3 583.6 476.4 581.4 450.9C581.3 450 580.5 449.4 579.6 449.4 578.7 449.5 578.1 450.3 578.2 451.2L580.1 473.5 571.7 466.6 570.8 456.7C570.7 455.8 570 455.1 569.1 455.2 568.2 455.3 567.5 456.1 567.6 457L568 463.5 561.9 458.4C561.1 457.8 560.2 457.9 559.6 458.6 559 459.4 559.1 460.3 559.8 460.9L566 466 559.7 466.6C558.8 466.7 558.2 467.4 558.2 468.3S559.1 469.8 560 469.7L569.4 468.8 578.1 476 556 478.1C555.1 478.1 554.5 478.9 554.6 479.8 554.6 480.7 555.4 481.3 556.3 481.2L581.5 478.8 588.7 484.7 580.1 485.5C579.2 485.6 578.6 486.4 578.7 487.3 578.8 488.2 579.5 488.8 580.4 488.7L592.1 487.6 599 493.3 590.7 496.4 579.8 491.5C579.1 491.3 578 491.7 577.8 492.4 577.4 493.3 577.7 494 578.5 494.6L586.3 498.1 578 501.2 554.7 490.7C553.7 490.3 553.1 490.6 552.5 491.3 552.1 492.3 552.7 493.1 553.1 493.6L573.6 503 563 506.7 554.2 502.8C553.5 502.2 552.6 502.7 552 503.4 551.9 504.1 552.2 505.2 553.1 505.6L558.9 508.2 551.4 511.2C550.5 511.3 550.1 512.3 550.5 513.4 550.8 514 551.7 514.4 552.4 514.1L560.1 511.3 557.2 517.3C556.8 518.2 557.4 519.1 558.1 519.2 558.8 519.8 559.5 519.5 559.9 519.1 560.1 518.8 560.1 518.8 560.3 518.6L564.2 509.8 574.8 506 565.6 526.2C565 527 565.5 527.8 566.2 528.5 566.9 528.6 567.6 528.3 568 527.8 568.2 527.6 568.2 527.6 568.2 527.6L579.2 504.3 587.5 501.2 583.9 509C583.6 510 583.9 510.6 584.6 511.3 585.3 511.4 586.2 511.3 586.6 510.8 586.8 510.6 586.8 510.6 587 510.3L591.9 499.4 600.2 496.4 598.8 505.1 589.2 512.2C588.4 512.7 588.3 513.9 588.5 514.5 589.3 515.1 590.2 515.5 590.8 514.8L597.9 509.8 596.7 518.7 575.6 533.7C574.9 534 574.8 535.1 575.1 535.8 575.8 536.4 576.8 536.8 577.6 536.2L595.7 523.4 593.8 534.2 585.9 539.8C585.1 540.3 585 541.5 585.7 542.1 586 542.7 586.9 543.1 587.8 542.5L593.1 538.6 591.8 546.7C591.7 547.4 592.2 548.3 593.1 548.6 593.6 548.6 594.2 548.3 594.7 547.8 594.7 547.8 594.9 547.6 595.1 547.3L596.3 539.2 600.3 544.5C600.5 545.2 601.7 545.3 602.3 545 602.6 544.8 602.6 544.8 602.6 544.8 603.2 544 603.1 543.1 602.6 542.7L597.1 534.8 598.7 523.8 611.8 542.1C612.6 542.7 613.3 542.9 614.1 542.3 614.1 542.3 614.3 542.1 614.3 542.1 614.7 541.6 614.9 540.9 614.4 540L599.7 519.1 601.1 510.4 606.1 517.4C606.8 518 607.8 518.4 608.4 517.6 608.6 517.8 608.8 517.6 608.8 517.6 609.2 517.1 609.2 516.2 608.9 515.5L601.8 506 603.5 497 610.4 502.7 611.5 514.4C611.6 515.3 612.6 516.1 613.5 516 614.1 515.7 614.7 515 614.9 514.3L613.8 505.5 621 511.4 623.4 536.7C623.5 537.6 624.2 538.2 625.1 538.1 626 538 626.6 537.3 626.5 536.4L624.4 514.3 633.1 521.4 634 530.9C634 531.8 634.8 532.4 635.7 532.3S637.2 531.5 637.1 530.6L636.5 524.3 642.7 529.4C643.4 530 644.3 529.9 644.9 529.2 645.5 528.4 645.5 527.5 644.7 526.9L638.6 521.8 645.1 521C645.5 520.9 646 520.9 646.2 520.6 646.4 520.4 646.5 519.7 646.5 519.2 646.4 518.3 645.7 517.7 644.8 517.8L635.1 519 626.5 511.8 648.8 509.5C649.2 509.4 649.7 509.4 649.9 509.2 650.1 508.9 650.2 508.2 650.2 507.8 650.1 506.9 649.4 506.2 648.5 506.3L623 509 615.9 503.1 624.7 502.5C625.1 502.4 625.5 501.9 625.7 501.7 625.9 501.4 626.1 501.2 626.1 500.7 626 499.8 625 499 624.4 499.3L612.4 500.2 605.5 494.5 614.1 491.2 624.8 496.3C625.5 496.5 626.4 496.4 626.8 495.9 627 495.6 627 495.6 626.7 495.4 627.3 494.7 627 493.6 626.1 493.2L618.2 489.7 626.8 486.3 650.1 497.3C650.8 497.5 651.4 497.2 651.9 496.7 652.1 496.4 652.1 496.4 652.1 496.4 652.4 495.5 652.3 494.6 651.4 494.2L631 484.8 641.5 481.1 650.3 485C651.2 485.4 651.9 485.1 652.3 484.6 652.3 484.6 652.5 484.4 652.5 484.4 652.9 483.4 652.3 482.6 651.8 482.1L645.7 479.5 653.4 476.8C653.6 476.5 653.8 476.3 654 476 654.2 475.8 654.4 475.1 654.3 474.6 653.8 473.8 653 473.2 652.2 473.7L644.5 476.5 647.3 470.5C647.7 469.6 647.2 468.7 646.7 468.3 645.7 468 644.9 468.5 644.3 469.2L640.3 478 630 481.9 639.2 461.8C639.6 460.8 639.3 459.7 638.6 459.5 637.6 459.2 636.7 459.3 636.3 460.2Z" fill="rgba(255, 255, 255, 1)"></path><path d="M599.9 184.2L582.1 212.1 573.2 214.3 559.4 199.3 562 190.3 591.5 175.1C591.8 174.8 591.8 174.8 592.1 174.5 592.7 174 593 173.2 592.5 172 591.7 171.1 590.9 170.8 589.7 171.3L564 184.7 568.2 171 579.5 165C579.5 165 579.8 164.7 579.8 164.7 580.4 164.2 580.7 163.3 580.2 162.2 579.9 161.3 578.5 161 577.4 161.5L569.9 165.1 573.1 155.1C573.4 154.3 572.9 153.1 571.8 152.5S569.5 153 568.9 154.1L565.9 163.9 562 156.6C561.5 155.5 560.1 155.1 558.9 155.6 558.3 156.2 557.7 157.3 558.2 158.4L564.3 169.7 559.8 183.7 546.4 158C545.9 156.8 544.5 156.5 543.6 156.7 542.7 157.5 542.1 158.6 542.6 159.8L558.1 189 555.2 198.2 535.8 202.5 529.3 195.5 530.3 162.4C530.4 161.3 529.6 160.4 528.4 160.3S526.4 161.1 526.4 162.2L525.5 191.4 515.4 180.5 516 168C516 166.9 515.2 166 513.8 165.7S511.8 166.5 511.7 167.6L511.7 176.4 504.3 168.4C503.5 167.5 502.1 167.8 501.2 168.6 500.3 169.4 500.3 170.5 501.1 171.4L508.4 179.3 499.9 179C498.5 178.6 497.7 179.5 497.9 180.9 497.8 182 498.6 182.9 499.8 182.9L512.2 183.5 522.2 194.3 493.1 192.9C492 192.8 490.8 193.9 490.8 195S491.6 197 492.7 197.1L526 198.5 532.5 205.5 526.4 224.8 517.2 226.7 489.4 208.8C488.3 208.2 487.1 208.8 486.2 209.6 485.6 210.7 486.1 211.8 487 212.7L511.5 228.2 497.5 231.3 486.8 224.3C485.7 223.7 484.5 224.2 483.6 225 483.3 225.9 483.5 227.3 484.6 227.9L491.5 232.4 481.2 234.8C480.4 235.1 479.8 236.2 479.7 237.3 480.2 238.5 481.3 239.1 482.2 238.8L492.5 236.4 487.9 243.9C487.6 244.7 487.9 246.2 488.7 246.5 489.5 247.4 490.4 247.1 491.2 246.3 491.2 246.3 491.5 246 491.5 246L498.5 235.3 512.5 232.2 497 256.7C496.4 257.8 496.4 259 497.5 259.6 498.6 260.2 499.5 259.9 500 259.4 500.3 259.1 500.3 259.1 500.3 259.1L518.2 230.7 527.3 228.8 541.2 243.8 538.3 252.5 508.7 268.2C507.9 268.5 507.5 269.9 507.8 270.7 508.3 271.9 509.7 272.2 510.9 271.7L536.6 258.3 532.4 272 521.1 278.1C519.9 278.6 519.3 279.7 520.1 280.6 520.6 281.7 522.1 282.1 522.9 281.8L530.4 277.6 527.2 287.7C527.2 288.8 527.7 290 528.8 290.6 529.3 290.6 530.2 290.3 530.8 289.8 531.1 289.5 531.1 289.5 531.1 289L534.4 278.9 538.6 286.4C539.1 287.6 540.2 287.6 541.1 287.4 541.4 287.1 541.4 287.1 541.7 286.8 542.3 286.3 542.6 285.5 542.3 284.6L536.3 273.3 540.5 259.6 553.9 285.4C554.7 286.3 555.8 286.9 556.7 286 557.3 286.1 557.3 286.1 557.6 285.8 558.2 285.3 558.2 284.1 558 283.3L542.2 253.7 545.1 245.1 564.8 240.5 571 247.3 569.7 280.6C569.6 281.8 570.7 282.9 571.8 283S574.1 281.9 574.2 280.8L575.1 251.7 584.9 262.3 584.6 275C584.6 276.1 585.4 277 586.5 277.1 587.6 277.1 588.5 276.3 588.6 275.2L588.9 266.7 596.2 274.6C596.8 275.2 598.2 275.6 599.1 274.8 599.9 273.9 600 272.2 599.5 271.7L592.2 263.7 600.6 264.1C601.2 264.1 601.8 264.1 602.1 263.8 602.6 263.3 602.7 262.7 602.7 262.2 602.7 261 601.9 260.2 600.8 260.1L588.1 259.3 578.3 248.7 607.4 250.2C608 250.2 608.3 249.9 608.9 249.4 609.2 249.1 609.5 248.9 609.5 248.3 609.5 247.2 608.5 246 607.3 245.9L574.3 244.3 568 237.5 573.9 218.5 583.1 216.1 611.2 234.2C612 234.5 613.2 234.6 613.8 234 614 233.8 614 233.8 613.8 233.5 614.7 232.7 614.4 231.2 613.3 230.6L588.8 215.2 603.1 211.8 613.8 218.7C614.6 219.1 615.5 218.8 616.1 218.3 616.1 218.3 616.4 218 616.4 218 617.3 217.2 617 215.8 615.9 215.2L608.5 210.6 618.8 208.2C619.3 208.2 619.6 207.9 619.9 207.7 620.5 207.1 620.8 206.3 620.6 206 620.3 204.6 619.2 204 618.1 203.9L607.8 206.3 612.3 199.4C612.9 198.3 612.7 196.9 611.6 196.3 610.8 196 609.4 196.2 609 197L602.1 207.8 588.1 210.9 603.5 186.3C604.1 185.2 603.6 184.1 602.8 183.2 602 182.9 600.5 183.1 599.9 184.2ZM557.8 204L568.4 215.5 570 217.2 569.3 219.5 564.8 234 563.8 236.5 561.5 237 546.7 240.3 544.4 240.8 542.8 239.1 532.2 227.6 530.6 225.8 531.2 223.6 535.8 209 536.5 206.8 539 206.1 553.9 202.7 556.2 202.2 557.8 204Z" fill="rgba(255, 255, 255, 1)"></path><path d="M68.2 358.6L98.6 371.7 102.2 380.1 89.7 396.1 80.4 395 60.6 368.3C60.3 368.1 60.3 368.1 60 367.8 59.3 367.3 58.5 367.2 57.4 367.9 56.7 368.8 56.5 369.7 57.2 370.7L74.6 394 60.4 392 52.6 381.9C52.6 381.9 52.3 381.6 52.3 381.6 51.6 381.1 50.8 380.9 49.7 381.6 48.9 382 48.8 383.5 49.5 384.5L54.3 391.3 43.9 389.8C43 389.6 41.9 390.3 41.5 391.5S42.3 393.7 43.5 394.1L53.7 395.4 47.2 400.5C46.1 401.2 46 402.6 46.7 403.7 47.3 404.2 48.5 404.6 49.6 403.9L59.7 396.1 74.3 398.3 51 415.7C50 416.4 49.9 417.8 50.2 418.6 51.2 419.4 52.4 419.8 53.4 419.1L79.8 399 89.3 400.4 96.7 418.9 90.8 426.5 58 430.8C56.9 430.9 56.1 431.9 56.3 433S57.4 434.8 58.5 434.7L87.4 430.9 78.2 442.5 65.9 444.1C64.8 444.2 64 445.1 63.9 446.6S65 448.4 66.1 448.3L74.8 447 68.1 455.5C67.4 456.4 67.9 457.8 68.8 458.5 69.7 459.3 70.9 459.1 71.6 458.2L78.3 449.7 79.3 458.1C79.2 459.5 80.1 460.3 81.5 459.8 82.6 459.7 83.4 458.7 83.2 457.6L81.7 445.3 90.8 433.6 94.1 462.5C94.2 463.7 95.5 464.7 96.6 464.5S98.5 463.4 98.3 462.3L94.3 429.2 100.2 421.6 120.2 424.6 123.6 433.3 110.5 463.7C110 464.9 110.7 465.9 111.7 466.7 112.9 467.1 113.9 466.4 114.7 465.4L125.9 438.7 131.3 452 126.1 463.7C125.7 464.9 126.4 466 127.4 466.7 128.2 466.9 129.6 466.5 130 465.3L133.4 457.7 137.4 467.5C137.8 468.3 139 468.7 140.1 468.6 141.2 467.9 141.6 466.7 141.2 465.9L137.2 456.1 145.3 459.4C146.2 459.6 147.5 459.1 147.7 458.3 148.4 457.3 148.1 456.5 147.1 455.8 147.1 455.8 146.8 455.5 146.8 455.5L135.1 450.4 129.7 437.1 156.5 448.4C157.7 448.8 158.8 448.6 159.2 447.5 159.6 446.3 159.2 445.5 158.6 445 158.3 444.7 158.3 444.7 158.3 444.7L127.4 431.7 124 423 136.6 406.9 145.6 408.4 165.9 434.9C166.3 435.8 167.8 435.9 168.6 435.5 169.6 434.8 169.7 433.3 169 432.3L151.7 409.1 165.9 411 173.7 421.2C174.4 422.2 175.5 422.7 176.3 421.7 177.3 421 177.4 419.6 177.1 418.8L171.7 412 182.1 413.6C183.2 413.4 184.3 412.7 184.7 411.6 184.7 411 184.3 410.2 183.6 409.7 183.3 409.4 183.3 409.4 182.8 409.5L172.3 407.9 179.1 402.6C180.1 401.9 180 400.7 179.6 399.9 179.3 399.7 179.3 399.7 179 399.4 178.3 398.9 177.5 398.8 176.7 399.2L166.5 406.9 152.3 405 175.5 387.6C176.3 386.7 176.7 385.5 175.7 384.7 175.7 384.2 175.7 384.2 175.4 383.9 174.7 383.4 173.6 383.6 172.8 384L146.2 404.3 137.2 402.8 129.5 384.1 135.2 376.9 168.3 372.8C169.4 372.7 170.4 371.4 170.3 370.3S168.9 368.2 167.8 368.3L138.9 372.1 147.7 360.8 160.3 359C161.5 358.8 162.2 357.9 162.1 356.8 161.9 355.6 161 354.9 159.9 355L151.4 356.1 158.1 347.6C158.6 346.9 158.7 345.5 157.7 344.8 156.8 344 155.1 344.2 154.6 344.9L148 353.4 146.9 344.9C146.9 344.4 146.8 343.8 146.5 343.6 145.9 343.1 145.3 343.1 144.7 343.2 143.6 343.4 142.9 344.3 143 345.4L144.3 358.1 135.4 369.4 132.1 340.5C132.1 339.9 131.8 339.7 131.1 339.2 130.8 338.9 130.5 338.7 129.9 338.8 128.8 338.9 127.8 340.2 128 341.3L131.7 374.2 126 381.4 106.3 378.7 102.4 370.1 115.8 339.4C115.9 338.5 115.8 337.4 115.2 336.9 114.9 336.6 114.9 336.6 114.6 336.9 113.7 336.2 112.3 336.6 111.9 337.8L100.6 364.6 95 351 100.1 339.3C100.3 338.4 99.9 337.6 99.2 337.1 99.2 337.1 98.9 336.9 98.9 336.9 98 336.1 96.6 336.6 96.2 337.8L92.9 345.9 88.9 336.1C88.8 335.5 88.5 335.3 88.2 335 87.5 334.5 86.7 334.4 86.4 334.7 85 335.1 84.6 336.3 84.8 337.5L88.8 347.2 81.3 343.9C80.1 343.4 78.7 343.9 78.3 345.1 78.1 346 78.6 347.3 79.4 347.5L91.2 352.6 96.5 365.9 69.8 354.7C68.6 354.3 67.5 355 66.8 355.9 66.6 356.8 67.1 358.1 68.2 358.6ZM94.6 396.9L104.2 384.7 105.7 382.8 108 383 123.1 385.2 125.7 385.7 126.5 387.9 132.3 402 133.1 404.2 131.6 406.1 122 418.4 120.5 420.3 118.2 420 103.1 417.8 100.8 417.6 99.7 415.1 94 401 93.1 398.8 94.6 396.9Z" fill="rgba(255, 255, 255, 1)"></path><path d="M1205.9 171.3L1179.5 173.4 1173.9 168.8 1176.8 152.7 1183.7 150.1 1207.7 161.6C1208 161.6 1208 161.6 1208.3 161.7 1208.9 161.8 1209.6 161.6 1210.1 160.7 1210.3 159.8 1210.1 159.1 1209.2 158.6L1188.2 148.6 1199 144.7 1208.3 149C1208.3 149 1208.6 149.1 1208.6 149.1 1209.3 149.2 1210 149 1210.4 148.1 1210.9 147.5 1210.4 146.5 1209.5 146L1203.6 142.9 1211.6 140.2C1212.2 140 1212.7 139.1 1212.6 138.1S1211.2 136.8 1210.2 137L1202.5 139.8 1205.2 133.8C1205.7 132.9 1205.3 131.9 1204.4 131.4 1203.7 131.3 1202.7 131.4 1202.3 132.3L1198 141.6 1186.9 145.4 1196.8 124.5C1197.3 123.6 1196.9 122.5 1196.3 122.1 1195.3 121.9 1194.3 122.1 1193.9 123L1182.7 147 1175.4 149.5 1163.3 139.2 1164.6 131.7 1186.3 116.4C1187 115.9 1187.2 114.9 1186.7 114.2S1185.2 113.3 1184.5 113.8L1165.4 127.2 1167.6 115.6 1175.7 109.9C1176.5 109.4 1176.7 108.5 1176.2 107.4S1174.7 106.5 1174 107L1168.4 111.2 1169.9 102.7C1170.1 101.7 1169.2 100.9 1168.3 100.8 1167.3 100.6 1166.6 101.1 1166.4 102.1L1164.9 110.6 1161 105C1160.6 103.9 1159.6 103.8 1158.8 104.6 1158.1 105.1 1157.9 106 1158.4 106.8L1164.1 115 1162 126.6 1148.9 107.3C1148.4 106.6 1147.1 106.4 1146.4 106.9S1145.5 108.3 1146 109.1L1161.2 131 1159.8 138.6 1144.5 143.9 1138.9 139 1136.9 112.6C1136.7 111.6 1135.8 111.2 1134.9 111 1133.9 111.1 1133.4 112 1133.2 113L1135.2 136.1 1126.5 128.6 1125.7 118.4C1125.6 117.4 1124.7 116.9 1123.8 116.8 1123.1 117 1122.3 117.8 1122.4 118.8L1122.9 125.4 1116.4 120C1115.8 119.6 1114.8 119.7 1114 120.2 1113.5 121.1 1113.7 122.1 1114.3 122.5L1120.8 127.9 1113.8 128.6C1113.1 128.8 1112.3 129.7 1112.5 130.3 1112.4 131.3 1112.9 131.7 1113.9 131.9 1113.9 131.9 1114.2 131.9 1114.2 131.9L1124.4 131.2 1133.1 138.6 1110 140.6C1109 140.8 1108.3 141.3 1108.4 142.3 1108.6 143.3 1109.1 143.7 1109.8 143.8 1110.1 143.9 1110.1 143.9 1110.1 143.9L1136.8 141.6 1142.4 146.5 1139.5 162.6 1132.6 164.9 1108.3 153.6C1107.7 153.2 1106.7 153.7 1106.2 154.2 1105.8 155.1 1106.2 156.2 1107.1 156.7L1128.1 166.7 1117.3 170.6 1108 166.3C1107.1 165.8 1106.1 165.9 1105.9 166.9 1105.4 167.8 1105.9 168.8 1106.5 169.2L1112.8 172 1104.8 174.8C1104.1 175.3 1103.6 176.2 1103.7 177.2 1104 177.6 1104.5 178 1105.2 178.1 1105.5 178.2 1105.5 178.2 1105.9 177.9L1113.8 175.1 1111.1 181.5C1110.6 182.4 1111.1 183.1 1111.7 183.5 1112 183.6 1112 183.6 1112.3 183.6 1112.9 183.8 1113.6 183.6 1114 183L1118.3 173.7 1129.1 169.8 1119.1 190.7C1119 191.7 1119.1 192.7 1120.1 192.8 1120.3 193.2 1120.3 193.2 1120.6 193.3 1121.3 193.4 1122 192.9 1122.4 192.3L1133.7 168 1140.6 165.7 1153 176.1 1151.7 183.3 1129.8 198.5C1129 199 1128.8 200.3 1129.3 201S1131.1 202 1131.8 201.5L1150.9 188 1148.8 199.4 1140.6 205.3C1139.8 205.9 1139.6 206.8 1140.2 207.5 1140.7 208.3 1141.6 208.5 1142.4 207.9L1147.9 204.1 1146.4 212.6C1146.3 213.2 1146.7 214.3 1147.7 214.4 1148.6 214.6 1149.8 213.8 1149.9 213.2L1151.4 204.7 1155.3 210.3C1155.5 210.7 1155.8 211 1156.1 211.1 1156.7 211.2 1157.1 210.9 1157.5 210.7 1158.2 210.2 1158.4 209.2 1157.9 208.5L1152.3 200 1154.3 188.6 1167.4 207.9C1167.7 208.3 1168 208.4 1168.6 208.5 1168.9 208.5 1169.2 208.6 1169.6 208.3 1170.4 207.8 1170.6 206.6 1170.1 205.8L1155.2 183.9 1156.5 176.7 1171.5 171.3 1177.4 175.9 1179.4 202.6C1179.6 203.3 1180.1 204.1 1180.8 204.2 1181.1 204.2 1181.1 204.2 1181.1 203.9 1182.1 204.1 1182.9 203.3 1182.7 202.3L1180.8 179.1 1189.8 186.6 1190.6 196.8C1190.8 197.5 1191.3 198 1192 198.1 1192 198.1 1192.3 198.1 1192.3 198.1 1193.2 198.3 1194 197.5 1193.9 196.5L1193.2 189.5 1199.7 194.9C1199.9 195.3 1200.3 195.3 1200.6 195.4 1201.2 195.5 1201.9 195.3 1201.9 195 1202.7 194.2 1202.6 193.2 1202.1 192.4L1195.6 187 1202.2 186.6C1203.2 186.4 1204 185.6 1203.8 184.6 1203.6 183.9 1202.8 183.1 1202.1 183.3L1191.9 184.1 1183.2 176.6 1206.3 174.7C1207.3 174.5 1207.8 173.6 1207.9 172.7 1207.7 172 1206.9 171.2 1205.9 171.3ZM1173 154L1170.7 166.3 1170.4 168.1 1168.6 168.8 1157.2 172.9 1155.1 173.5 1153.7 172.3 1144.4 164.4 1143 163.2 1143.3 161.3 1145.6 149 1145.9 147.1 1147.7 146.5 1159.1 142.4 1160.9 141.7 1162.6 143 1171.9 150.9 1173.3 152.1 1173 154Z" fill="rgba(255, 255, 255, 1)"></path></g><defs><mask id="SvgjsMask2077"><rect width="1440" height="560" fill="#ffffff"></rect></mask><filter id="SvgjsFilter2078"><feGaussianBlur stdDeviation="1"></feGaussianBlur></filter></defs></svg>