<svg xmlns="http://www.w3.org/2000/svg" version="1.1" xmlns:xlink="http://www.w3.org/1999/xlink" xmlns:svgjs="http://svgjs.dev/svgjs" width="1500" height="1500" viewBox="0 0 1500 1500"><rect width="1500" height="1500" fill="#ffffff"></rect><g transform="matrix(0.6666666666666666,0,0,0.6666666666666666,248.53909869138118,356.4012051946008)"><svg viewBox="0 0 316 248" data-background-color="#ffffff" preserveAspectRatio="xMidYMid meet" height="1177" width="1500" xmlns="http://www.w3.org/2000/svg" xmlns:xlink="http://www.w3.org/1999/xlink"><g id="tight-bounds" transform="matrix(1,0,0,1,0.4616448135235487,0.4000410640539087)"><svg viewBox="0 0 315.0767103729529 247.2" height="247.2" width="315.0767103729529"><g><svg viewBox="0 0 395.52 310.3134594882233" height="247.2" width="315.0767103729529"><g transform="matrix(1,0,0,1,0,250.73163557469036)"><svg viewBox="0 0 395.52 59.581823913532986" height="59.581823913532986" width="395.52"><g id="textblocktransform"><svg viewBox="0 0 395.52 59.581823913532986" height="59.581823913532986" width="395.52" id="textblock"><g><svg viewBox="0 0 395.52 59.581823913532986" height="59.581823913532986" width="395.52"><g transform="matrix(1,0,0,1,0,0)"><svg width="395.52" viewBox="4.45 -32.75 222.03 33.449999999999996" height="59.581823913532986" data-palette-color="#755bb4"><path d="M8.5-12.3L4.45-12.35 4.45-28.2Q4.45-29.2 5.05-29.8 5.65-30.4 6.65-30.4L6.65-30.4Q7.2-30.4 7.75-30.25 8.3-30.1 8.5-30L8.5-30 8.5-12.3ZM6.65-13.1L6.65-16.55 21.5-16.55Q21.65-16.3 21.8-15.88 21.95-15.45 21.95-14.95L21.95-14.95Q21.95-14.15 21.55-13.63 21.15-13.1 20.4-13.1L20.4-13.1 6.65-13.1ZM6.65-26.95L6.65-30.4 23.25-30.4Q23.4-30.2 23.55-29.75 23.7-29.3 23.7-28.8L23.7-28.8Q23.7-28 23.3-27.48 22.9-26.95 22.15-26.95L22.15-26.95 6.65-26.95ZM4.45-17.8L8.55-17.8 8.55-0.05Q8.3 0 7.78 0.13 7.25 0.25 6.7 0.25L6.7 0.25Q5.6 0.25 5.03-0.2 4.45-0.65 4.45-1.55L4.45-1.55 4.45-17.8ZM37.85-2.6L37.85-2.6Q39.95-2.6 41.32-3.03 42.7-3.45 43.3-3.85L43.3-3.85 43.3-11.1 37.1-10.45Q34.5-10.25 33.25-9.3 32-8.35 32-6.55L32-6.55Q32-4.7 33.47-3.65 34.95-2.6 37.85-2.6ZM37.8-23.75L37.8-23.75Q42.15-23.75 44.7-21.8 47.25-19.85 47.25-15.65L47.25-15.65 47.25-3.8Q47.25-2.7 46.82-2.13 46.4-1.55 45.55-1.05L45.55-1.05Q44.35-0.4 42.35 0.15 40.35 0.7 37.85 0.7L37.85 0.7Q33.15 0.7 30.57-1.15 28-3 28-6.5L28-6.5Q28-9.75 30.17-11.48 32.35-13.2 36.2-13.55L36.2-13.55 43.3-14.25 43.3-15.65Q43.3-18.15 41.8-19.3 40.3-20.45 37.75-20.45L37.75-20.45Q35.7-20.45 33.82-19.85 31.95-19.25 30.5-18.5L30.5-18.5Q30.1-18.85 29.77-19.33 29.45-19.8 29.45-20.3L29.45-20.3Q29.45-21.6 30.9-22.3L30.9-22.3Q32.25-23 34.02-23.38 35.8-23.75 37.8-23.75ZM60.7-10.55L58.2-12.5 69.59-23.55Q70.8-23.5 71.47-22.98 72.15-22.45 72.15-21.6L72.15-21.6Q72.15-20.9 71.72-20.35 71.3-19.8 70.5-19.15L70.5-19.15 60.7-10.55ZM58.09-11.85L60.9-13.5 73.59-2.1Q73.5-1 72.92-0.35 72.34 0.3 71.4 0.3L71.4 0.3Q70.65 0.3 70.02-0.1 69.4-0.5 68.75-1.15L68.75-1.15 58.09-11.85ZM54.65-13.4L58.65-12.8 58.65-0.1Q58.4 0 57.9 0.13 57.4 0.25 56.8 0.25L56.8 0.25Q55.75 0.25 55.2-0.18 54.65-0.6 54.65-1.55L54.65-1.55 54.65-13.4ZM58.65-10.85L54.65-11.45 54.65-32.4Q54.9-32.5 55.42-32.63 55.95-32.75 56.55-32.75L56.55-32.75Q57.59-32.75 58.12-32.33 58.65-31.9 58.65-30.95L58.65-30.95 58.65-10.85ZM80.34-9L80.14-12.15 95.24-14.2Q95.04-16.95 93.34-18.73 91.64-20.5 88.64-20.5L88.64-20.5Q85.54-20.5 83.52-18.28 81.49-16.05 81.49-11.9L81.49-11.9 81.49-10.8Q81.84-6.8 84.12-4.73 86.39-2.65 90.34-2.65L90.34-2.65Q92.44-2.65 94.14-3.35 95.84-4.05 96.84-4.85L96.84-4.85Q97.39-4.5 97.72-4.03 98.04-3.55 98.04-2.95L98.04-2.95Q98.04-2 96.97-1.18 95.89-0.35 94.12 0.15 92.34 0.65 90.14 0.65L90.14 0.65Q86.29 0.65 83.47-0.75 80.64-2.15 79.12-4.93 77.59-7.7 77.59-11.7L77.59-11.7Q77.59-14.55 78.42-16.78 79.24-19 80.72-20.55 82.19-22.1 84.24-22.93 86.29-23.75 88.69-23.75L88.69-23.75Q91.74-23.75 94.07-22.45 96.39-21.15 97.72-18.82 99.04-16.5 99.04-13.5L99.04-13.5Q99.04-12.4 98.54-11.93 98.04-11.45 97.14-11.35L97.14-11.35 80.34-9ZM123.94-2.75L123.94-2.75Q127.29-2.75 129.01-4.28 130.74-5.8 130.74-8.2L130.74-8.2Q130.74-10.25 129.41-11.6 128.09-12.95 125.24-13.75L125.24-13.75 120.89-15.05Q118.79-15.7 117.24-16.73 115.69-17.75 114.86-19.28 114.04-20.8 114.04-22.85L114.04-22.85Q114.04-26.7 116.84-28.88 119.64-31.05 124.29-31.05L124.29-31.05Q126.99-31.05 129.11-30.48 131.24-29.9 132.46-29 133.69-28.1 133.69-27.1L133.69-27.1Q133.69-26.45 133.34-25.93 132.99-25.4 132.44-25.1L132.44-25.1Q131.19-26.1 129.06-26.85 126.94-27.6 124.44-27.6L124.44-27.6Q121.54-27.6 119.84-26.33 118.14-25.05 118.14-22.85L118.14-22.85Q118.14-21.1 119.36-20 120.59-18.9 123.34-18.1L123.34-18.1 126.39-17.2Q130.34-16.1 132.61-14 134.89-11.9 134.89-8.2L134.89-8.2Q134.89-4.25 132.01-1.8 129.14 0.65 123.94 0.65L123.94 0.65Q120.89 0.65 118.61-0.03 116.34-0.7 115.06-1.73 113.79-2.75 113.79-3.75L113.79-3.75Q113.79-4.6 114.31-5.18 114.84-5.75 115.54-6L115.54-6Q116.69-4.9 118.79-3.83 120.89-2.75 123.94-2.75ZM141.04-13.2L145.04-13.2 145.04-6.3Q145.04-4.3 146.19-3.48 147.34-2.65 149.34-2.65L149.34-2.65Q150.19-2.65 151.24-2.95 152.29-3.25 152.99-3.65L152.99-3.65Q153.29-3.35 153.54-2.9 153.79-2.45 153.79-1.85L153.79-1.85Q153.79-0.75 152.49-0.05 151.19 0.65 148.89 0.65L148.89 0.65Q145.39 0.65 143.21-0.9 141.04-2.45 141.04-6.05L141.04-6.05 141.04-13.2ZM143.09-19.3L143.09-22.6 153.24-22.6Q153.39-22.4 153.54-21.95 153.69-21.5 153.69-21L153.69-21Q153.69-20.2 153.29-19.75 152.89-19.3 152.19-19.3L152.19-19.3 143.09-19.3ZM145.04-11.7L141.04-11.7 141.04-29.8Q141.29-29.9 141.81-30.03 142.34-30.15 142.94-30.15L142.94-30.15Q143.99-30.15 144.51-29.73 145.04-29.3 145.04-28.35L145.04-28.35 145.04-11.7ZM181.03-11.55L181.03-11.55Q181.03-7.85 179.63-5.1 178.23-2.35 175.68-0.85 173.13 0.65 169.68 0.65L169.68 0.65Q166.23 0.65 163.66-0.85 161.08-2.35 159.68-5.1 158.28-7.85 158.28-11.55L158.28-11.55Q158.28-15.3 159.71-18.03 161.13-20.75 163.71-22.25 166.28-23.75 169.68-23.75L169.68-23.75Q173.08-23.75 175.63-22.25 178.18-20.75 179.61-18.03 181.03-15.3 181.03-11.55ZM169.68-20.45L169.68-20.45Q166.33-20.45 164.36-18.07 162.38-15.7 162.38-11.55L162.38-11.55Q162.38-7.35 164.31-5 166.23-2.65 169.68-2.65L169.68-2.65Q173.08-2.65 175.01-5.03 176.93-7.4 176.93-11.55L176.93-11.55Q176.93-15.7 175.01-18.07 173.08-20.45 169.68-20.45ZM191.23-18.8L191.23-10.9 187.23-10.9 187.23-18.5Q187.23-19.65 187.66-20.33 188.08-21 189.08-21.65L189.08-21.65Q190.38-22.5 192.63-23.13 194.88-23.75 197.63-23.75L197.63-23.75Q201.63-23.75 201.63-21.75L201.63-21.75Q201.63-21.25 201.48-20.83 201.33-20.4 201.08-20.1L201.08-20.1Q200.58-20.2 199.78-20.3 198.98-20.4 198.18-20.4L198.18-20.4Q195.88-20.4 194.13-19.93 192.38-19.45 191.23-18.8L191.23-18.8ZM187.23-13.2L191.23-12.6 191.23-0.1Q190.98 0 190.48 0.13 189.98 0.25 189.38 0.25L189.38 0.25Q188.33 0.25 187.78-0.18 187.23-0.6 187.23-1.55L187.23-1.55 187.23-13.2ZM207.78-9L207.58-12.15 222.68-14.2Q222.48-16.95 220.78-18.73 219.08-20.5 216.08-20.5L216.08-20.5Q212.98-20.5 210.95-18.28 208.93-16.05 208.93-11.9L208.93-11.9 208.93-10.8Q209.28-6.8 211.55-4.73 213.83-2.65 217.78-2.65L217.78-2.65Q219.88-2.65 221.58-3.35 223.28-4.05 224.28-4.85L224.28-4.85Q224.83-4.5 225.15-4.03 225.48-3.55 225.48-2.95L225.48-2.95Q225.48-2 224.4-1.18 223.33-0.35 221.55 0.15 219.78 0.65 217.58 0.65L217.58 0.65Q213.73 0.65 210.9-0.75 208.08-2.15 206.55-4.93 205.03-7.7 205.03-11.7L205.03-11.7Q205.03-14.55 205.85-16.78 206.68-19 208.15-20.55 209.63-22.1 211.68-22.93 213.73-23.75 216.13-23.75L216.13-23.75Q219.18-23.75 221.5-22.45 223.83-21.15 225.15-18.82 226.48-16.5 226.48-13.5L226.48-13.5Q226.48-12.4 225.98-11.93 225.48-11.45 224.58-11.35L224.58-11.35 207.78-9Z" opacity="1" transform="matrix(1,0,0,1,0,0)" fill="#755bb4" class="wordmark-text-0" data-fill-palette-color="primary" id="text-0"></path></svg></g></svg></g></svg></g></svg></g><g transform="matrix(1,0,0,1,89.97648054041882,0)"><svg viewBox="0 0 215.56703891916234 215.56703891916234" height="215.56703891916234" width="215.56703891916234"><g><svg viewBox="0 0 215.56703891916234 215.56703891916234" height="215.56703891916234" width="215.56703891916234"><g transform="matrix(1,0,0,1,66.46003975096939,56.97388111956647)"><svg viewBox="0 0 82.64695941722357 101.6192766800294" height="101.6192766800294" width="82.64695941722357"><g><svg xmlns="http://www.w3.org/2000/svg" xmlns:xlink="http://www.w3.org/1999/xlink" version="1.1" x="0" y="0" viewBox="13.401991122237591 4.999990928283492 73.19700887776241 90.0000090717165" enable-background="new 0 0 100 100" xml:space="preserve" height="101.6192766800294" width="82.64695941722357" class="icon-dxe-0" data-fill-palette-color="accent" id="dxe-0"><path d="M86.599 9.948C86.599 8.837 86.496 7.739 86.292 6.672 84.917 15.959 81.217 18.294 73.963 18.294A12.8 12.8 0 0 1 62.283 10.693C60.868 7.535 58.109 5 54.414 5A8.3 8.3 0 0 0 49.843 6.364 8.3 8.3 0 0 0 45.587 5.189C41.892 5.189 39.133 7.724 37.719 10.882A12.8 12.8 0 0 1 26.039 18.483C18.785 18.483 15.084 16.148 13.71 6.861A17.4 17.4 0 0 0 13.402 10.138C13.402 21.356 21.285 25.796 33.892 25.796 39.683 25.796 44.978 23.88 49 20.735 49.019 20.721 49.473 20.322 50.094 19.689 50.615 20.209 50.984 20.534 51 20.547 55.022 23.692 60.317 25.608 66.108 25.608 69.811 25.608 73.093 25.212 75.901 24.387V93.5A1.5 1.5 0 0 0 78.901 93.5V23.237C83.8 20.866 86.599 16.61 86.599 9.948" fill="#755bb4" data-fill-palette-color="accent"></path></svg></g></svg></g><g id="text-0"><path d="M13.02 79.022l-0.716 2.147-8.441-2.732c-0.356-0.115-0.608-0.312-0.756-0.592-0.14-0.284-0.152-0.604-0.036-0.959v0c0.062-0.191 0.15-0.376 0.264-0.557 0.115-0.18 0.202-0.299 0.263-0.357v0zM12.283 79.868l-1.838-0.596 2.559-7.907c0.105-0.022 0.244-0.037 0.414-0.045 0.163-0.004 0.333 0.023 0.511 0.081v0c0.286 0.093 0.498 0.238 0.637 0.438 0.143 0.208 0.172 0.445 0.085 0.712v0zM4.9 77.478l-1.829-0.592 2.861-8.841c0.086-0.028 0.217-0.042 0.392-0.042 0.177-0.006 0.355 0.02 0.533 0.078v0c0.286 0.093 0.497 0.242 0.634 0.447 0.139 0.199 0.165 0.432 0.079 0.699v0zM9.398 80.228l0.707-2.181 9.45 3.059c-0.01 0.095-0.022 0.242-0.037 0.44-0.017 0.205-0.057 0.403-0.118 0.593v0c-0.127 0.394-0.303 0.667-0.528 0.819-0.225 0.152-0.499 0.175-0.823 0.07v0z" fill="#755bb4" data-fill-palette-color="accent"></path><path d="M31.375 54.326v0c0.446-0.642 0.749-1.219 0.91-1.733 0.162-0.514 0.245-0.903 0.25-1.168v0l-3.331-2.313-1.68 3.052c-0.492 0.837-0.726 1.548-0.702 2.134 0.024 0.586 0.313 1.071 0.867 1.455v0c0.565 0.392 1.165 0.476 1.801 0.251 0.64-0.23 1.268-0.79 1.885-1.678zM21.627 47.593v0c0.925-1.332 1.959-2.183 3.102-2.552 1.138-0.364 2.352-0.098 3.64 0.797v0l5.453 3.787c0.334 0.232 0.546 0.472 0.634 0.72 0.084 0.253 0.112 0.565 0.082 0.935v0c-0.052 0.508-0.209 1.127-0.471 1.855-0.253 0.727-0.646 1.474-1.179 2.241v0c-1.001 1.442-2.059 2.362-3.172 2.76-1.119 0.394-2.213 0.219-3.281-0.524v0c-0.998-0.693-1.528-1.557-1.59-2.591-0.071-1.033 0.252-2.178 0.971-3.434v0l1.932-3.486-0.641-0.445c-0.768-0.533-1.485-0.694-2.152-0.483-0.671 0.217-1.278 0.717-1.823 1.502v0c-0.434 0.625-0.761 1.288-0.98 1.989-0.213 0.705-0.359 1.36-0.437 1.964v0c-0.193 0.044-0.398 0.069-0.612 0.075-0.217-0.004-0.402-0.059-0.556-0.166v0c-0.395-0.274-0.548-0.709-0.458-1.306v0c0.076-0.565 0.244-1.159 0.506-1.782 0.262-0.623 0.606-1.241 1.032-1.856z" fill="#755bb4" data-fill-palette-color="accent"></path><path d="M46.428 32.067l-1.769 0.018 1.116-8.81c0.357-0.269 0.698-0.405 1.021-0.407 0.314-0.003 0.571 0.12 0.771 0.37v0c0.163 0.203 0.247 0.431 0.252 0.684 0.004 0.262-0.034 0.583-0.113 0.963v0zM44.844 32.412l0.644-1.71 9.544 0.542c0.223 0.343 0.327 0.675 0.31 0.996-0.012 0.326-0.157 0.6-0.433 0.821v0c-0.219 0.175-0.467 0.276-0.746 0.303-0.274 0.031-0.583 0.031-0.926-0.003v0zM42.791 32.94l1.957-1.144 4.445 5.549c-0.048 0.09-0.13 0.211-0.247 0.365-0.117 0.153-0.264 0.301-0.441 0.442v0c-0.302 0.242-0.584 0.365-0.846 0.37-0.262 0.004-0.503-0.132-0.724-0.408v0zM45.43 32.648l-1.957 1.144-7.331-9.152c0.048-0.09 0.135-0.215 0.263-0.377 0.122-0.158 0.269-0.305 0.44-0.443v0c0.307-0.246 0.587-0.367 0.838-0.363 0.256 0 0.495 0.138 0.717 0.414v0z" fill="#755bb4" data-fill-palette-color="accent"></path><path d="M68.504 19.721l-0.76-1.594 7.409-4.225c-0.458-0.924-1.105-1.574-1.94-1.95-0.835-0.376-1.77-0.356-2.804 0.06v0c-1.077 0.434-1.811 1.176-2.202 2.226-0.388 1.056-0.293 2.302 0.286 3.739v0l0.228 0.566c0.683 1.337 1.562 2.207 2.637 2.608 1.076 0.402 2.298 0.327 3.667-0.224v0c0.725-0.292 1.332-0.677 1.823-1.155 0.491-0.478 0.854-0.927 1.088-1.345v0c0.239 0.04 0.448 0.122 0.628 0.244 0.179 0.122 0.309 0.286 0.391 0.49v0c0.132 0.328 0.07 0.71-0.187 1.144-0.257 0.434-0.657 0.862-1.2 1.282-0.549 0.423-1.202 0.786-1.957 1.09v0c-1.338 0.539-2.593 0.764-3.766 0.675-1.173-0.089-2.216-0.507-3.129-1.255-0.913-0.748-1.649-1.815-2.207-3.203v0c-0.397-0.985-0.608-1.921-0.635-2.81-0.024-0.883 0.112-1.697 0.409-2.442 0.293-0.737 0.737-1.395 1.332-1.973 0.591-0.569 1.302-1.021 2.131-1.355v0c1.059-0.426 2.082-0.576 3.069-0.448 0.987 0.128 1.872 0.502 2.655 1.123 0.782 0.62 1.382 1.448 1.798 2.482v0c0.155 0.384 0.178 0.691 0.069 0.922-0.106 0.237-0.306 0.436-0.601 0.598v0z" fill="#755bb4" data-fill-palette-color="accent"></path><path d="M119.925 15.781v0c1.247 0.145 2.221-0.028 2.923-0.518 0.702-0.49 1.105-1.179 1.208-2.067v0c0.089-0.763-0.084-1.421-0.517-1.976-0.432-0.561-1.158-1.052-2.177-1.472v0l-2.334-0.997c-0.754-0.336-1.394-0.727-1.921-1.171-0.533-0.445-0.919-0.967-1.159-1.566-0.239-0.606-0.314-1.287-0.226-2.043v0c0.166-1.432 0.813-2.49 1.941-3.172 1.135-0.688 2.565-0.932 4.289-0.731v0c1.001 0.116 1.884 0.326 2.649 0.63 0.757 0.31 1.345 0.657 1.764 1.042 0.412 0.384 0.597 0.762 0.554 1.133v0c-0.028 0.239-0.116 0.45-0.266 0.634-0.155 0.177-0.342 0.31-0.56 0.399v0c-0.414-0.424-1-0.822-1.757-1.192-0.757-0.37-1.599-0.609-2.528-0.717v0c-1.074-0.125-1.954 0.012-2.638 0.409-0.685 0.404-1.076 1.014-1.17 1.83v0c-0.075 0.643 0.093 1.197 0.502 1.661 0.404 0.457 1.099 0.894 2.086 1.311v0l1.632 0.704c1.419 0.575 2.504 1.299 3.256 2.172 0.751 0.88 1.047 2.007 0.888 3.38v0c-0.169 1.459-0.837 2.581-2.004 3.366-1.173 0.784-2.725 1.065-4.655 0.84v0c-1.127-0.131-2.098-0.368-2.911-0.711-0.82-0.351-1.443-0.742-1.87-1.175-0.426-0.439-0.618-0.845-0.574-1.216v0c0.036-0.312 0.163-0.562 0.38-0.752 0.224-0.189 0.47-0.315 0.739-0.378v0c0.377 0.454 0.931 0.925 1.661 1.413 0.736 0.489 1.668 0.799 2.795 0.93z" fill="#755bb4" data-fill-palette-color="accent"></path><path d="M144.281 15.931l2.076 0.849-1.464 3.577c-0.283 0.692-0.285 1.261-0.005 1.708 0.285 0.449 0.771 0.813 1.456 1.093v0c0.297 0.121 0.649 0.204 1.057 0.248 0.401 0.042 0.75 0.044 1.047 0.006v0c0.062 0.148 0.105 0.317 0.128 0.507 0.023 0.19-0.008 0.39-0.094 0.6v0c-0.154 0.377-0.506 0.594-1.056 0.65-0.543 0.059-1.214-0.074-2.011-0.4v0c-1.205-0.493-2.076-1.159-2.612-1.999-0.534-0.846-0.547-1.89-0.039-3.132v0zM146.639 13.206l0.698-1.705 5.255 2.149c0.028 0.091 0.035 0.223 0.021 0.398-0.008 0.177-0.047 0.352-0.118 0.526v0c-0.114 0.278-0.273 0.465-0.478 0.561-0.199 0.099-0.419 0.099-0.66 0.001v0zM146.038 17.558l-2.076-0.849 3.837-9.379c0.099 0.004 0.25 0.023 0.453 0.055 0.197 0.03 0.4 0.088 0.61 0.174v0c0.358 0.147 0.601 0.329 0.729 0.547 0.119 0.222 0.111 0.496-0.023 0.823v0z" fill="#755bb4" data-fill-palette-color="accent"></path><path d="M175.25 36.268v0c-0.858 1.084-1.812 1.865-2.863 2.344-1.046 0.483-2.113 0.648-3.201 0.494-1.097-0.153-2.15-0.629-3.16-1.429v0c-1.01-0.8-1.718-1.717-2.124-2.753-0.41-1.031-0.5-2.111-0.271-3.241 0.23-1.129 0.773-2.236 1.631-3.319v0c0.866-1.094 1.825-1.876 2.878-2.346 1.043-0.468 2.116-0.624 3.217-0.467 1.102 0.157 2.15 0.629 3.145 1.416v0c0.995 0.787 1.692 1.697 2.093 2.729 0.395 1.028 0.488 2.106 0.277 3.233-0.215 1.132-0.756 2.246-1.622 3.339zM173.352 28.42v0c-0.979-0.775-2.032-1.042-3.158-0.802-1.128 0.231-2.172 0.954-3.134 2.169v0c-0.974 1.23-1.449 2.412-1.426 3.545 0.013 1.134 0.525 2.101 1.535 2.901v0c0.995 0.787 2.05 1.056 3.167 0.807 1.116-0.249 2.155-0.98 3.116-2.195v0c0.961-1.214 1.432-2.391 1.414-3.529-0.014-1.144-0.519-2.109-1.514-2.896z" fill="#755bb4" data-fill-palette-color="accent"></path><path d="M191.84 49.331l-3.602 2.573-1.298-1.817 3.463-2.474c0.348-0.248 0.669-0.384 0.965-0.406 0.3-0.017 0.656 0.057 1.069 0.221v0c0.544 0.21 1.154 0.587 1.829 1.13 0.679 0.549 1.317 1.241 1.915 2.077v0c0.869 1.217 1 2.042 0.391 2.478v0c-0.152 0.109-0.311 0.185-0.476 0.229-0.161 0.05-0.313 0.068-0.454 0.054v0c-0.082-0.172-0.193-0.391-0.335-0.659-0.147-0.264-0.307-0.515-0.478-0.755v0c-0.501-0.701-1.012-1.267-1.533-1.698-0.523-0.422-1.009-0.74-1.456-0.953zM187.991 49.336l1.022 2.015-5.688 4.063c-0.087-0.053-0.204-0.142-0.35-0.266-0.147-0.125-0.284-0.277-0.412-0.457v0c-0.229-0.32-0.338-0.611-0.329-0.873 0.014-0.256 0.165-0.487 0.453-0.692v0z" fill="#755bb4" data-fill-palette-color="accent"></path><path d="M198.52 73.187l1.621-0.699 3.939 7.566c0.941-0.423 1.615-1.044 2.023-1.864 0.408-0.82 0.423-1.755 0.046-2.804v0c-0.392-1.093-1.106-1.855-2.139-2.286-1.04-0.428-2.289-0.381-3.747 0.143v0l-0.575 0.206c-1.362 0.631-2.265 1.476-2.707 2.536-0.442 1.06-0.414 2.284 0.084 3.672v0c0.264 0.735 0.625 1.357 1.084 1.866 0.459 0.509 0.893 0.889 1.303 1.139v0c-0.049 0.238-0.139 0.443-0.268 0.618-0.129 0.174-0.297 0.298-0.505 0.372v0c-0.333 0.12-0.712 0.043-1.136-0.23-0.424-0.273-0.836-0.689-1.235-1.249-0.401-0.565-0.74-1.231-1.015-1.997v0c-0.487-1.357-0.664-2.62-0.53-3.789 0.134-1.169 0.592-2.195 1.374-3.079 0.782-0.884 1.877-1.578 3.285-2.083v0c0.999-0.359 1.943-0.534 2.832-0.527 0.883 0.009 1.691 0.177 2.425 0.502 0.725 0.321 1.365 0.79 1.92 1.407 0.546 0.613 0.97 1.34 1.273 2.182v0c0.386 1.074 0.496 2.102 0.33 3.084-0.166 0.981-0.573 1.851-1.223 2.609-0.65 0.758-1.5 1.326-2.549 1.702v0c-0.39 0.14-0.698 0.151-0.924 0.034-0.233-0.115-0.424-0.323-0.575-0.624v0z" fill="#755bb4" data-fill-palette-color="accent"></path><path d="M13.596 139.887l-0.719-2.293 8.955-2.932c0.374-0.123 0.713-0.107 1.016 0.047 0.295 0.149 0.504 0.414 0.629 0.795v0c0.066 0.203 0.105 0.419 0.117 0.646 0.011 0.228 0.013 0.382 0.004 0.463v0zM13.713 138.7l1.942-0.635 2.744 8.384c-0.076 0.088-0.185 0.187-0.324 0.296-0.14 0.109-0.305 0.195-0.496 0.257v0c-0.298 0.098-0.571 0.102-0.817 0.015-0.247-0.088-0.415-0.271-0.507-0.551v0zM21.536 136.139l1.941-0.635 3.069 9.374c-0.057 0.082-0.159 0.179-0.305 0.289-0.153 0.113-0.324 0.201-0.515 0.264v0c-0.298 0.098-0.571 0.102-0.817 0.014-0.247-0.088-0.415-0.271-0.507-0.55v0zM15.951 136.588l0.757 2.312-10.021 3.281c-0.048-0.083-0.128-0.218-0.239-0.407-0.115-0.18-0.206-0.372-0.272-0.574v0c-0.137-0.419-0.155-0.764-0.055-1.036 0.101-0.272 0.319-0.463 0.656-0.573v0z" fill="#755bb4" data-fill-palette-color="accent"></path><path d="M22.851 170.927v0c0.478 0.684 0.944 1.197 1.396 1.541 0.451 0.353 0.81 0.582 1.079 0.687v0l3.528-2.468-2.432-2.796c-0.659-0.802-1.283-1.298-1.873-1.488-0.59-0.19-1.177-0.081-1.762 0.328v0c-0.602 0.421-0.904 0.991-0.906 1.71-0.012 0.717 0.312 1.546 0.97 2.486zM33.139 163.693v0c0.987 1.411 1.455 2.755 1.402 4.03-0.057 1.27-0.766 2.381-2.128 3.334v0l-5.768 4.035c-0.361 0.253-0.682 0.376-0.964 0.369-0.282-0.007-0.602-0.092-0.962-0.256v0c-0.48-0.243-1.037-0.627-1.673-1.151-0.632-0.519-1.233-1.186-1.803-2.002v0c-1.068-1.526-1.593-2.918-1.578-4.176 0.02-1.252 0.599-2.277 1.737-3.072v0c1.056-0.739 2.109-0.95 3.161-0.635 1.052 0.315 2.071 1.056 3.059 2.223v0l2.767 3.222 0.681-0.477c0.81-0.566 1.23-1.223 1.261-1.97 0.037-0.751-0.236-1.542-0.817-2.374v0c-0.463-0.662-1.007-1.23-1.633-1.705-0.616-0.473-1.212-0.859-1.787-1.157v0c0.023-0.212 0.075-0.423 0.155-0.634 0.08-0.211 0.203-0.374 0.367-0.489v0c0.421-0.295 0.911-0.287 1.47 0.023v0c0.53 0.281 1.057 0.666 1.579 1.156 0.531 0.492 1.023 1.06 1.474 1.706z" fill="#755bb4" data-fill-palette-color="accent"></path><path d="M45.76 188.123l-0.444-1.838 9.395-0.919c0.358 0.311 0.578 0.63 0.657 0.958 0.076 0.333 0.01 0.631-0.198 0.892v0c-0.175 0.219-0.394 0.361-0.657 0.424-0.268 0.068-0.606 0.102-1.014 0.101v0zM45.025 186.553l1.912 0.267 1.694 9.999c-0.306 0.32-0.626 0.508-0.962 0.565-0.34 0.062-0.656-0.023-0.949-0.255v0c-0.235-0.187-0.399-0.42-0.493-0.7-0.094-0.279-0.163-0.599-0.209-0.959v0zM44 184.561l1.639 1.751-4.701 5.909c-0.103-0.031-0.248-0.091-0.433-0.179-0.185-0.079-0.371-0.193-0.56-0.343v0c-0.324-0.258-0.52-0.52-0.588-0.788-0.059-0.269 0.028-0.55 0.26-0.842v0zM44.916 187.221l-1.633-1.759 7.75-9.74c0.098 0.027 0.245 0.088 0.442 0.185 0.195 0.087 0.384 0.203 0.567 0.348v0c0.329 0.262 0.523 0.523 0.581 0.782 0.054 0.265-0.036 0.543-0.269 0.836v0z" fill="#755bb4" data-fill-palette-color="accent"></path><path d="M67.408 202.195l0.582-1.784 8.787 2.189c0.329-1.04 0.31-2.011-0.057-2.912-0.364-0.907-1.098-1.581-2.202-2.021v0c-1.141-0.455-2.247-0.422-3.318 0.1-1.071 0.522-1.911 1.548-2.521 3.081v0l-0.242 0.604c-0.456 1.522-0.418 2.834 0.112 3.937 0.533 1.097 1.525 1.934 2.976 2.512v0c0.775 0.309 1.528 0.458 2.258 0.448 0.728-0.004 1.334-0.083 1.819-0.234v0c0.153 0.212 0.253 0.428 0.302 0.648 0.049 0.221 0.028 0.443-0.061 0.666v0c-0.138 0.347-0.467 0.594-0.985 0.739-0.512 0.148-1.133 0.184-1.865 0.108-0.725-0.074-1.494-0.272-2.306-0.596v0c-1.414-0.564-2.538-1.314-3.372-2.25-0.837-0.93-1.331-2.015-1.484-3.255-0.156-1.248 0.059-2.607 0.645-4.076v0c0.42-1.054 0.946-1.93 1.576-2.628 0.63-0.697 1.332-1.222 2.105-1.575 0.767-0.355 1.589-0.534 2.467-0.536 0.878-0.002 1.757 0.172 2.637 0.523v0c1.122 0.448 2.015 1.084 2.678 1.909 0.665 0.819 1.072 1.754 1.221 2.805 0.149 1.051 0.003 2.129-0.437 3.232v0c-0.161 0.403-0.369 0.654-0.624 0.754-0.255 0.099-0.555 0.102-0.898 0.008v0z" fill="#755bb4" data-fill-palette-color="accent"></path><path d="M121.032 213.463v0c1.313-0.15 2.277-0.566 2.891-1.248 0.608-0.674 0.858-1.486 0.75-2.434v0c-0.092-0.803-0.427-1.44-1.005-1.911-0.585-0.477-1.456-0.808-2.613-0.991v0l-2.654-0.473c-0.859-0.164-1.616-0.413-2.273-0.748-0.656-0.328-1.181-0.775-1.575-1.341-0.394-0.566-0.637-1.251-0.728-2.054v0c-0.174-1.519 0.241-2.769 1.244-3.75 1.003-0.982 2.42-1.577 4.251-1.787v0c1.068-0.122 2.033-0.118 2.894 0.012 0.861 0.13 1.555 0.346 2.079 0.649 0.518 0.297 0.799 0.644 0.845 1.042v0c0.029 0.252-0.011 0.488-0.12 0.71-0.116 0.222-0.276 0.405-0.482 0.549v0c-0.536-0.335-1.238-0.604-2.108-0.808-0.869-0.196-1.798-0.238-2.786-0.124v0c-1.141 0.13-2.017 0.486-2.629 1.066-0.613 0.574-0.87 1.296-0.771 2.165v0c0.079 0.69 0.385 1.223 0.919 1.598 0.533 0.376 1.359 0.661 2.476 0.856v0l1.861 0.321c1.608 0.253 2.907 0.743 3.898 1.469 0.99 0.727 1.568 1.816 1.734 3.269v0c0.178 1.559-0.245 2.884-1.269 3.975-1.023 1.098-2.557 1.764-4.599 1.998v0c-1.2 0.137-2.264 0.124-3.19-0.039-0.926-0.17-1.665-0.424-2.214-0.764-0.55-0.347-0.848-0.719-0.894-1.118v0c-0.038-0.332 0.033-0.622 0.213-0.871 0.186-0.25 0.41-0.44 0.671-0.57v0c0.5 0.38 1.189 0.734 2.067 1.064 0.878 0.33 1.917 0.426 3.117 0.288z" fill="#755bb4" data-fill-palette-color="accent"></path><path d="M143.347 201.58l2.199-0.892 1.539 3.796c0.298 0.736 0.72 1.171 1.263 1.303 0.544 0.133 1.183 0.05 1.92-0.249v0c0.316-0.128 0.642-0.325 0.981-0.592 0.338-0.267 0.607-0.527 0.807-0.781v0c0.157 0.066 0.312 0.165 0.466 0.297 0.161 0.129 0.285 0.302 0.372 0.519v0c0.163 0.402 0.059 0.83-0.312 1.283-0.371 0.453-0.98 0.851-1.827 1.195v0c-1.281 0.519-2.435 0.656-3.465 0.41-1.029-0.246-1.812-1.03-2.348-2.354v0zM143.108 197.765l-0.738-1.819 5.596-2.268c0.086 0.052 0.186 0.148 0.301 0.288 0.123 0.144 0.223 0.309 0.298 0.495v0c0.118 0.291 0.14 0.549 0.065 0.774-0.081 0.227-0.251 0.394-0.511 0.499v0zM145.881 201.514l-2.199 0.892-4.045-9.976c0.072-0.072 0.198-0.17 0.378-0.294 0.174-0.121 0.37-0.225 0.586-0.313v0c0.39-0.158 0.712-0.199 0.967-0.122 0.254 0.077 0.452 0.289 0.592 0.635v0z" fill="#755bb4" data-fill-palette-color="accent"></path><path d="M175.57 182.742v0c0.907 1.155 1.479 2.331 1.715 3.529 0.235 1.207 0.14 2.356-0.285 3.446-0.426 1.09-1.177 2.058-2.253 2.903v0c-1.076 0.845-2.199 1.35-3.37 1.514-1.165 0.16-2.304-0.02-3.416-0.539-1.113-0.509-2.123-1.342-3.03-2.497v0c-0.915-1.165-1.484-2.349-1.706-3.549-0.222-1.201-0.117-2.349 0.314-3.443 0.436-1.098 1.185-2.064 2.245-2.897v0c1.06-0.833 2.171-1.327 3.33-1.482 1.165-0.16 2.302 0.013 3.411 0.517 1.114 0.5 2.129 1.333 3.045 2.498zM166.996 182.753v0c-1.045 0.821-1.584 1.842-1.616 3.065-0.033 1.223 0.458 2.48 1.472 3.771v0c1.031 1.312 2.132 2.099 3.304 2.358 1.176 0.265 2.302-0.025 3.378-0.87v0c1.06-0.833 1.599-1.855 1.617-3.065 0.017-1.21-0.484-2.464-1.503-3.761v0c-1.014-1.291-2.112-2.072-3.291-2.342-1.18-0.27-2.3 0.011-3.361 0.844z" fill="#755bb4" data-fill-palette-color="accent"></path><path d="M185.1 165.125l3.809 2.747-1.388 1.925-3.663-2.642c-0.368-0.266-0.612-0.544-0.731-0.835-0.119-0.292-0.169-0.673-0.149-1.145v0c0.034-0.618 0.207-1.361 0.521-2.23 0.323-0.87 0.802-1.746 1.439-2.629v0c0.925-1.283 1.71-1.693 2.354-1.228v0c0.162 0.117 0.294 0.249 0.394 0.395 0.1 0.146 0.172 0.293 0.215 0.439v0c-0.15 0.139-0.334 0.327-0.555 0.563-0.216 0.231-0.418 0.477-0.605 0.737v0c-0.531 0.736-0.924 1.441-1.178 2.113-0.249 0.676-0.403 1.273-0.463 1.79zM186.417 169l1.672-1.72 6.027 4.346c-0.026 0.105-0.079 0.252-0.158 0.441-0.07 0.188-0.175 0.38-0.316 0.575v0c-0.242 0.336-0.495 0.544-0.759 0.625-0.266 0.072-0.55-0.002-0.854-0.22v0z" fill="#755bb4" data-fill-palette-color="accent"></path><path d="M201.361 147.393l-1.8-0.529 1.927-8.848c-1.05-0.298-2.019-0.25-2.909 0.143-0.896 0.391-1.547 1.144-1.954 2.261v0c-0.421 1.154-0.355 2.258 0.198 3.313 0.553 1.055 1.604 1.865 3.153 2.43v0l0.612 0.223c1.534 0.411 2.845 0.334 3.931-0.229 1.08-0.565 1.888-1.582 2.424-3.049v0c0.286-0.784 0.413-1.541 0.381-2.27-0.026-0.727-0.122-1.331-0.289-1.811v0c0.207-0.159 0.42-0.266 0.64-0.321 0.219-0.055 0.442-0.041 0.667 0.041v0c0.351 0.128 0.607 0.449 0.768 0.963 0.163 0.507 0.218 1.128 0.163 1.861-0.052 0.727-0.228 1.502-0.527 2.323v0c-0.522 1.43-1.238 2.576-2.15 3.437-0.905 0.864-1.975 1.39-3.209 1.579-1.243 0.193-2.608 0.019-4.094-0.524v0c-1.066-0.389-1.957-0.888-2.673-1.497-0.716-0.609-1.261-1.295-1.637-2.058-0.378-0.756-0.581-1.573-0.609-2.45-0.028-0.877 0.12-1.761 0.445-2.652v0c0.414-1.135 1.024-2.046 1.829-2.733 0.799-0.689 1.721-1.124 2.767-1.303 1.046-0.18 2.127-0.066 3.244 0.341v0c0.408 0.149 0.665 0.349 0.772 0.602 0.107 0.252 0.119 0.551 0.035 0.897v0z" fill="#755bb4" data-fill-palette-color="accent"></path><path d="M1.482 109.396c0-3.868 3.136-7.004 7.004-7.004 3.868 0 7.004 3.136 7.004 7.004 0 3.868-3.136 7.004-7.004 7.004-3.868 0-7.004-3.136-7.004-7.004z" fill="#755bb4" data-fill-palette-color="accent"></path><path d="M200.077 109.396c0-3.868 3.136-7.004 7.004-7.004 3.868 0 7.004 3.136 7.004 7.004 0 3.868-3.136 7.004-7.004 7.004-3.868 0-7.004-3.136-7.004-7.004z" fill="#755bb4" data-fill-palette-color="accent"></path></g><g id="text-1"></g></svg></g></svg></g><g></g></svg></g><defs></defs></svg><rect width="315.0767103729529" height="247.2" fill="none" stroke="none" visibility="hidden"></rect></g></svg></g></svg>